<svg width="30" height="30" viewBox="0 0 30 30" fill="none" xmlns="http://www.w3.org/2000/svg">
<path d="M29.5729 7.87593H29.5728L29.5718 7.87493L27.6354 7.59858C27.5379 7.58469 27.4467 7.54219 27.3734 7.47646C27.3001 7.41073 27.2479 7.32472 27.2234 7.2293C27.199 7.13389 27.2033 7.03337 27.236 6.94045C27.2687 6.84752 27.3281 6.76638 27.4069 6.70728L28.972 5.53315C29.0776 5.45392 29.1474 5.33596 29.1661 5.20522C29.1848 5.07449 29.1508 4.94169 29.0715 4.83605L27.2795 2.44596C27.2003 2.34032 27.0824 2.27047 26.9517 2.2518C26.821 2.23312 26.6882 2.26714 26.5826 2.34638L25.018 3.52051C24.9393 3.58026 24.8446 3.61522 24.7459 3.62094C24.6473 3.62666 24.5492 3.60288 24.4641 3.55263C24.379 3.50238 24.3107 3.42793 24.2681 3.33877C24.2254 3.24961 24.2103 3.14976 24.2245 3.05195L24.5013 1.11499C24.5106 1.05026 24.507 0.984338 24.4909 0.920984C24.4747 0.85763 24.4462 0.798086 24.407 0.74575C24.3678 0.693415 24.3187 0.649315 24.2624 0.615966C24.2062 0.582618 24.144 0.560674 24.0793 0.55139L24.0787 0.551327L21.1238 0.12908C21.0591 0.119784 20.9932 0.12333 20.9298 0.139513C20.8665 0.155696 20.807 0.184201 20.7546 0.223399C20.7023 0.262597 20.6582 0.311721 20.6249 0.367966C20.5915 0.424211 20.5696 0.486475 20.5603 0.551203V0.551327L20.2835 2.48829C20.2696 2.5858 20.2272 2.67701 20.1614 2.75037C20.0957 2.82372 20.0097 2.87594 19.9144 2.9004C19.819 2.92487 19.7185 2.92049 19.6256 2.88781C19.5327 2.85514 19.4516 2.79564 19.3925 2.71684L18.2192 1.15134C18.14 1.04569 18.022 0.975845 17.8913 0.957168C17.7607 0.938492 17.6279 0.972515 17.5223 1.05175L16.0264 2.17459C15.3497 2.10264 14.6672 2.10264 13.9904 2.17459C9.55848 2.6813 6.08295 6.21675 5.65093 10.6579C5.63749 10.7988 5.63252 10.9387 5.62555 11.0786H5.47621C5.36162 11.0788 5.25062 11.1186 5.16192 11.1912C5.07323 11.2637 5.01229 11.3647 4.98937 11.477L4.64539 13.1132L3.26751 12.1626C3.17166 12.0965 3.05567 12.0661 2.93971 12.0766C2.82375 12.0872 2.71516 12.138 2.63282 12.2204L1.13945 13.7142C1.05724 13.7965 1.00645 13.9051 0.995899 14.0209C0.985351 14.1368 1.01571 14.2527 1.0817 14.3486L2.02751 15.7244L0.391266 16.0684C0.280198 16.0928 0.180807 16.1544 0.109624 16.2431C0.0384405 16.3318 -0.000245089 16.4422 1.16845e-06 16.5559V18.5476C-5.00157e-05 18.6619 0.0392031 18.7728 0.111172 18.8615C0.183141 18.9503 0.283445 19.0116 0.395248 19.0351L2.03149 19.3792L1.08569 20.755C1.01969 20.8508 0.989333 20.9667 0.999882 21.0826C1.01043 21.1985 1.06122 21.307 1.14343 21.3893L2.6368 22.8832C2.71914 22.9655 2.82773 23.0164 2.94369 23.0269C3.05966 23.0375 3.17565 23.0071 3.27149 22.9409L4.64689 21.9923L4.99086 23.6291C5.01378 23.7414 5.07473 23.8423 5.16342 23.9149C5.25211 23.9875 5.36312 24.0272 5.4777 24.0274H7.46887C7.58312 24.0275 7.69392 23.9882 7.78265 23.9162C7.87139 23.8442 7.93267 23.7439 7.95621 23.632L8.30018 21.9953L9.67558 22.9414C9.77138 23.0074 9.88727 23.0378 10.0031 23.0272C10.119 23.0167 10.2275 22.9659 10.3098 22.8836L11.0828 22.1079V23.527C11.0839 23.875 11.1765 24.2167 11.3512 24.5177C11.526 24.8187 11.7768 25.0684 12.0784 25.2419V28.0084C12.0784 29.1084 12.9699 30.0001 14.0696 30.0001H16.0608C17.1604 30.0001 18.0519 29.1084 18.0519 28.0084V25.2419C18.3536 25.0684 18.6044 24.8187 18.7791 24.5177C18.9538 24.2167 19.0464 23.875 19.0475 23.527V21.5562C19.0542 21.1481 19.163 20.7482 19.3642 20.3931C19.5653 20.038 19.8523 19.739 20.1989 19.5236C20.612 19.2555 21.0038 18.9558 21.3707 18.6273L20.7066 17.8854C20.3784 18.1797 20.0277 18.4479 19.6578 18.6876C19.1714 18.9929 18.7694 19.4156 18.4888 19.9168C18.2083 20.4181 18.058 20.9817 18.0519 21.5562V23.527C18.0519 24.077 17.6062 24.5228 17.0563 24.5228H13.074C12.5241 24.5228 12.0784 24.077 12.0784 23.527V21.5148C12.0728 20.9514 11.9251 20.3984 11.6491 19.9072C11.3731 19.416 10.9777 19.0023 10.4994 18.7045C6.55399 16.2247 5.36526 11.0151 7.84439 7.06853C8.60118 5.86377 9.6502 4.86996 10.8939 4.17948C12.1376 3.48899 13.5357 3.12426 14.9581 3.11917C14.9507 3.1369 14.9442 3.15502 14.9387 3.17345C14.9203 3.30418 14.9545 3.4369 15.0338 3.54241L16.2071 5.10742C16.2675 5.18565 16.3027 5.28041 16.3081 5.37912C16.3134 5.47783 16.2886 5.57584 16.237 5.66013C16.1872 5.74503 16.1133 5.81317 16.0246 5.85583C15.9359 5.89849 15.8366 5.91374 15.7392 5.89963L13.8028 5.62278C13.7381 5.6135 13.6722 5.61705 13.6088 5.63324C13.5455 5.64943 13.486 5.67794 13.4336 5.71715C13.3813 5.75635 13.3372 5.80548 13.3039 5.86173C13.2706 5.91797 13.2486 5.98024 13.2393 6.04497L13.2393 6.04553L12.8166 9.00275C12.7979 9.13347 12.8319 9.26628 12.911 9.37198C12.9902 9.47767 13.108 9.54758 13.2387 9.56635L13.2393 9.56641L15.1757 9.84327C15.2732 9.85715 15.3643 9.89965 15.4377 9.96539C15.511 10.0311 15.5632 10.1171 15.5877 10.2125C15.6121 10.308 15.6078 10.4085 15.5751 10.5014C15.5424 10.5943 15.4829 10.6755 15.4042 10.7346L13.8396 11.9082C13.734 11.9874 13.6642 12.1054 13.6455 12.2361C13.6268 12.3669 13.6608 12.4997 13.7401 12.6053L15.5321 14.9954C15.6113 15.101 15.7292 15.1709 15.8599 15.1896C15.9906 15.2082 16.1234 15.1742 16.229 15.095L17.7941 13.9213C17.8728 13.8624 17.9673 13.8282 18.0655 13.8229C18.1637 13.8176 18.2612 13.8415 18.3458 13.8917C18.4304 13.9418 18.4983 14.0159 18.5409 14.1045C18.5835 14.1932 18.5988 14.2925 18.5851 14.3899L18.3088 16.3269C18.2995 16.3916 18.303 16.4575 18.3192 16.5209C18.3354 16.5842 18.3639 16.6438 18.4031 16.6961C18.4423 16.7485 18.4914 16.7926 18.5476 16.8259C18.6038 16.8593 18.6661 16.8812 18.7308 16.8905H18.7309L21.6878 17.3133C21.7111 17.3163 21.7345 17.3177 21.758 17.3177C21.8779 17.3179 21.9938 17.2747 22.0844 17.1963C22.175 17.1178 22.2343 17.0092 22.2513 16.8905L22.5276 14.9536C22.5415 14.856 22.5839 14.7648 22.6497 14.6915C22.7154 14.6181 22.8014 14.5659 22.8967 14.5414C22.9921 14.517 23.0926 14.5214 23.1855 14.554C23.2784 14.5867 23.3595 14.6462 23.4186 14.725L24.5924 16.29C24.6716 16.3957 24.7896 16.4655 24.9202 16.4842C25.0509 16.5029 25.1837 16.4688 25.2893 16.3896L27.6787 14.597C27.7843 14.5178 27.8542 14.3998 27.8728 14.2691C27.8915 14.1384 27.8575 14.0056 27.7783 13.8999L26.605 12.3349C26.5448 12.2566 26.5098 12.1619 26.5044 12.0632C26.4991 11.9646 26.5237 11.8666 26.5751 11.7822C26.6238 11.6963 26.6975 11.6273 26.7865 11.5846C26.8755 11.5419 26.9755 11.5274 27.0729 11.5432L29.0093 11.8196C29.074 11.8289 29.1399 11.8253 29.2033 11.8091C29.2666 11.7929 29.3261 11.7644 29.3785 11.7252C29.4308 11.686 29.4749 11.6369 29.5082 11.5807C29.5416 11.5244 29.5635 11.4622 29.5728 11.3974V11.3973L29.9949 8.43959C30.0042 8.37486 30.0007 8.30894 29.9845 8.24558C29.9683 8.18222 29.9398 8.12267 29.9007 8.07033C29.8615 8.01799 29.8124 7.97388 29.7561 7.94053C29.6999 7.90717 29.6377 7.88522 29.5729 7.87593ZM13.074 25.5187H17.0563V26.5146H13.074V25.5187ZM13.074 27.5104H17.0563V28.0084C17.0563 28.5584 16.6106 29.0042 16.0608 29.0042H14.0696C13.5197 29.0042 13.074 28.5584 13.074 28.0084V27.5104ZM9.11108 18.9236C9.38287 19.1459 9.66689 19.3529 9.96181 19.5435C10.4321 19.8408 10.7862 20.2906 10.9649 20.8177L9.8971 21.8838L8.86318 21.1708C8.41044 20.8587 7.7905 20.9728 7.47845 21.4257C7.40366 21.5343 7.35116 21.6567 7.32401 21.7857L7.06317 23.029H5.87992L5.61908 21.7877C5.50583 21.2495 4.97786 20.905 4.43981 21.0183C4.3108 21.0454 4.18846 21.0979 4.0799 21.1727L3.04549 21.8838L2.13851 20.9786L2.85086 19.9448C3.16316 19.4922 3.04941 18.872 2.59686 18.5596C2.48822 18.4846 2.36575 18.4319 2.23658 18.4047L0.995585 18.1433V16.9602L2.23658 16.6988C2.77444 16.5847 3.11804 16.0561 3.00399 15.518C2.97694 15.3904 2.92508 15.2693 2.85135 15.1617L2.13851 14.125L3.04549 13.2198L4.0804 13.9328C4.53333 14.2446 5.15327 14.13 5.46495 13.677C5.53962 13.5685 5.59201 13.4462 5.61908 13.3173L5.70619 12.9031C5.78594 13.4768 5.91807 14.042 6.10094 14.5916C4.46302 14.7869 3.29352 16.2735 3.48878 17.9118C3.68403 19.5502 5.17019 20.7201 6.80811 20.5248C7.29368 20.4668 7.75761 20.2905 8.15915 20.0113C8.56069 19.7322 8.88757 19.3586 9.11108 18.9236ZM8.33801 18.222C7.96629 19.2555 6.8274 19.7919 5.79417 19.4201C4.76094 19.0483 4.2247 17.9091 4.59636 16.8756C4.73514 16.4897 4.98978 16.1562 5.32542 15.9207C5.66105 15.6852 6.06126 15.5592 6.47123 15.56H6.49015C6.94793 16.5474 7.57311 17.448 8.33801 18.222ZM28.6549 10.762L27.2113 10.5558C26.3948 10.4392 25.6384 11.0067 25.5218 11.8234C25.4658 12.2156 25.5678 12.614 25.8055 12.931L26.6802 14.0976L25.0872 15.2927L24.2121 14.1265C23.7173 13.4664 22.7813 13.3325 22.1214 13.8275C21.8046 14.0652 21.5951 14.419 21.539 14.8111L21.3374 16.2571L19.3666 15.9753L19.5727 14.5313C19.6896 13.7146 19.1225 12.9578 18.306 12.8409C18.1118 12.8131 17.914 12.8238 17.7239 12.8725C17.5338 12.9212 17.3552 13.0069 17.1982 13.1246L16.0319 13.9995L14.8372 12.4061L16.003 11.5308C16.6629 11.0358 16.7967 10.0995 16.3019 9.4395C16.0643 9.12255 15.7106 8.91298 15.3185 8.85686L13.875 8.65071L14.1567 6.6794L15.6003 6.88554C16.4167 7.00249 17.1734 6.43522 17.2902 5.61855C17.3181 5.42425 17.3073 5.22638 17.2587 5.03623C17.21 4.84609 17.1243 4.66741 17.0066 4.5104L16.129 3.34274L17.7219 2.1477L18.597 3.31436C19.0918 3.97443 20.0278 4.10832 20.6877 3.61337C21.0045 3.3757 21.214 3.02187 21.2701 2.6297L21.4762 1.18569L23.447 1.46703L23.2409 2.91103C23.1243 3.72777 23.6917 4.48438 24.5082 4.60102C24.9002 4.65704 25.2985 4.55496 25.6154 4.3172L26.7817 3.44233L27.9764 5.03572L26.8101 5.91109C26.1502 6.40603 26.0163 7.34233 26.5112 8.00234C26.7488 8.31929 27.1025 8.52887 27.4945 8.58499L28.9381 8.79113L28.6549 10.762Z" fill="#384BFF"/>
<path d="M21.405 4.73684C19.2057 4.73684 17.4227 6.52032 17.4227 8.72031C17.4227 10.9203 19.2057 12.7038 21.405 12.7038C23.6044 12.7038 25.3874 10.9203 25.3874 8.72031C25.3849 6.52131 23.6034 4.73927 21.405 4.73684ZM21.405 11.7079C19.7555 11.7079 18.4183 10.3703 18.4183 8.72031C18.4183 7.07028 19.7555 5.73271 21.405 5.73271C23.0546 5.73271 24.3918 7.07028 24.3918 8.72031C24.3899 10.3695 23.0538 11.706 21.405 11.7079ZM14.5674 22.0331H15.563V23.5269H14.5674V22.0331ZM12.8878 17.1429C9.81489 15.9421 8.29694 12.4768 9.49743 9.40304C9.96259 8.212 10.7975 7.20164 11.8793 6.52044L11.3472 5.67794C8.0906 7.73011 7.11375 12.0344 9.16534 15.2919C9.9599 16.5535 11.1379 17.527 12.5264 18.0695C13.7555 18.5406 14.5671 19.7207 14.5674 21.0372H15.563C15.5645 19.3099 14.5004 17.7607 12.8878 17.1429ZM24.5232 18.5475H28.0078V19.5434H24.5232V18.5475ZM23.7069 21.9174L24.3441 21.1522L27.3311 23.6415L26.6938 24.4066L23.7069 21.9174ZM21.5365 22.531H22.532V26.0165H21.5365V22.531ZM0.508301 8.60323L4.49039 7.60762L4.73169 8.57317L0.749605 9.56891L0.508301 8.60323ZM1.3352 3.51697L1.91357 2.70702L5.3978 5.19643L4.81949 6.00639L1.3352 3.51697ZM5.60034 0.246664L6.56481 0L7.58298 3.98316L6.61851 4.22982L5.60034 0.246664Z" fill="#384BFF"/>
</svg>
