<svg width="20" height="20" viewBox="0 0 20 20" fill="none" xmlns="http://www.w3.org/2000/svg">
<path d="M10.0003 15.8334C9.83477 15.8343 9.67271 15.786 9.53478 15.6945C9.39685 15.603 9.28929 15.4725 9.22581 15.3196C9.16234 15.1667 9.14583 14.9984 9.17839 14.8361C9.21095 14.6738 9.2911 14.5249 9.40862 14.4084L13.8253 10L9.40862 5.59169C9.2721 5.43227 9.20076 5.22721 9.20886 5.01748C9.21696 4.80775 9.30391 4.6088 9.45232 4.46039C9.60073 4.31197 9.79968 4.22503 10.0094 4.21693C10.2191 4.20883 10.4242 4.28017 10.5836 4.41669L15.5836 9.41669C15.7388 9.57282 15.826 9.78403 15.826 10.0042C15.826 10.2243 15.7388 10.4356 15.5836 10.5917L10.5836 15.5917C10.4284 15.7456 10.2189 15.8324 10.0003 15.8334Z" fill="#585858"/>
<path d="M5.00029 15.8334C4.83477 15.8344 4.67271 15.786 4.53478 15.6945C4.39685 15.603 4.28929 15.4725 4.22581 15.3196C4.16234 15.1668 4.14583 14.9985 4.17839 14.8362C4.21095 14.6739 4.2911 14.525 4.40862 14.4084L8.82529 10.0001L4.40862 5.59174C4.2517 5.43482 4.16355 5.22199 4.16355 5.00007C4.16355 4.77816 4.2517 4.56533 4.40862 4.40841C4.56554 4.25149 4.77837 4.16333 5.00029 4.16333C5.22221 4.16333 5.43504 4.25149 5.59196 4.40841L10.592 9.40841C10.7472 9.56454 10.8343 9.77575 10.8343 9.99591C10.8343 10.2161 10.7472 10.4273 10.592 10.5834L5.59196 15.5834C5.51478 15.6621 5.42274 15.7248 5.32118 15.7677C5.21961 15.8106 5.11055 15.8329 5.00029 15.8334Z" fill="#585858"/>
</svg>
