<svg width="20" height="20" viewBox="0 0 20 20" fill="none" xmlns="http://www.w3.org/2000/svg">
<path d="M4.16615 10C4.16519 9.83452 4.21354 9.67247 4.30505 9.53453C4.39655 9.3966 4.52705 9.28904 4.67992 9.22557C4.83279 9.1621 5.0011 9.14559 5.16339 9.17815C5.32568 9.2107 5.4746 9.29085 5.59115 9.40838L9.99949 13.825L14.4078 9.40838C14.5672 9.27186 14.7723 9.20052 14.982 9.20862C15.1918 9.21672 15.3907 9.30366 15.5391 9.45208C15.6875 9.60049 15.7745 9.79944 15.7826 10.0092C15.7907 10.2189 15.7193 10.424 15.5828 10.5834L10.5828 15.5834C10.4267 15.7386 10.2155 15.8257 9.99532 15.8257C9.77517 15.8257 9.56396 15.7386 9.40782 15.5834L4.40782 10.5834C4.25387 10.4282 4.16708 10.2187 4.16615 10Z" fill="#3C72FC"/>
<path d="M4.16586 5.00005C4.1649 4.83452 4.21325 4.67247 4.30475 4.53453C4.39625 4.3966 4.52676 4.28904 4.67963 4.22557C4.83249 4.1621 5.0008 4.14559 5.16309 4.17815C5.32538 4.2107 5.4743 4.29085 5.59086 4.40838L9.99919 8.82505L14.4075 4.40838C14.5644 4.25146 14.7773 4.1633 14.9992 4.1633C15.2211 4.1633 15.4339 4.25146 15.5909 4.40838C15.7478 4.5653 15.8359 4.77813 15.8359 5.00005C15.8359 5.22196 15.7478 5.43479 15.5909 5.59171L10.5909 10.5917C10.4347 10.7469 10.2235 10.834 10.0034 10.834C9.78321 10.834 9.572 10.7469 9.41586 10.5917L4.41586 5.59171C4.33712 5.51453 4.27448 5.4225 4.23157 5.32093C4.18865 5.21937 4.16632 5.1103 4.16586 5.00005Z" fill="#3C72FC"/>
</svg>
