<svg width="40" height="40" viewBox="0 0 40 40" fill="none" xmlns="http://www.w3.org/2000/svg">
<g clip-path="url(#clip0_7517_401)">
<path d="M19.9998 20.0001C19.9013 20.0004 19.8037 19.9829 19.7114 19.9484L3.87811 14.1151C3.71842 14.0559 3.5807 13.9492 3.4835 13.8093C3.3863 13.6695 3.33429 13.5032 3.33447 13.3329C3.33465 13.1625 3.38702 12.9964 3.48452 12.8567C3.58201 12.7171 3.71996 12.6106 3.87978 12.5518L14.7131 8.56844C14.9171 8.50642 15.1371 8.5248 15.328 8.6198C15.5189 8.7148 15.6662 8.87923 15.7397 9.07937C15.8133 9.27951 15.8075 9.5002 15.7235 9.69619C15.6395 9.89218 15.4837 10.0486 15.2881 10.1334L6.57978 13.3334L19.9998 18.2784L33.4198 13.3334L24.7114 10.1318C24.5039 10.0555 24.3352 9.89995 24.2423 9.69929C24.1495 9.49862 24.1402 9.2693 24.2164 9.06177C24.2927 8.85424 24.4483 8.6855 24.6489 8.59267C24.8496 8.49983 25.0789 8.49052 25.2864 8.56677L36.1198 12.5501C36.2802 12.6086 36.4187 12.715 36.5166 12.8549C36.6146 12.9947 36.6672 13.1613 36.6674 13.332C36.6675 13.5027 36.6153 13.6694 36.5176 13.8095C36.42 13.9495 36.2817 14.0562 36.1214 14.1151L20.2881 19.9484C20.1959 19.9829 20.0982 20.0004 19.9998 20.0001ZM19.9998 40.0001C19.9019 40.0006 19.8047 39.9831 19.7131 39.9484L10.8631 36.6984C10.6556 36.6222 10.4868 36.4666 10.394 36.266C10.3012 36.0653 10.2919 35.836 10.3681 35.6284C10.4444 35.4209 10.5999 35.2522 10.8006 35.1593C11.0013 35.0665 11.2306 35.0572 11.4381 35.1334L19.9998 38.2784L28.5631 35.1334C28.7706 35.0572 29 35.0665 29.2006 35.1593C29.4013 35.2522 29.5569 35.4209 29.6331 35.6284C29.7094 35.836 29.7001 36.0653 29.6072 36.266C29.5144 36.4666 29.3456 36.6222 29.1381 36.6984L20.2881 39.9484C20.1959 39.9829 20.0982 40.0004 19.9998 40.0001Z" fill="#384BFF"/>
<path d="M4.16683 29.6C3.94582 29.6 3.73385 29.5122 3.57757 29.3559C3.42129 29.1996 3.3335 28.9877 3.3335 28.7667V13.3333C3.3335 13.1123 3.42129 12.9004 3.57757 12.7441C3.73385 12.5878 3.94582 12.5 4.16683 12.5C4.38784 12.5 4.5998 12.5878 4.75609 12.7441C4.91237 12.9004 5.00016 13.1123 5.00016 13.3333V28.7667C5.00016 28.9877 4.91237 29.1996 4.75609 29.3559C4.5998 29.5122 4.38784 29.6 4.16683 29.6ZM35.8335 29.6C35.6125 29.6 35.4005 29.5122 35.2442 29.3559C35.088 29.1996 35.0002 28.9877 35.0002 28.7667V13.3333C35.0002 13.1123 35.088 12.9004 35.2442 12.7441C35.4005 12.5878 35.6125 12.5 35.8335 12.5C36.0545 12.5 36.2665 12.5878 36.4228 12.7441C36.579 12.9004 36.6668 13.1123 36.6668 13.3333V28.7667C36.6668 28.9877 36.579 29.1996 36.4228 29.3559C36.2665 29.5122 36.0545 29.6 35.8335 29.6ZM20.0002 13.3333C19.7792 13.3333 19.5672 13.2455 19.4109 13.0893C19.2546 12.933 19.1668 12.721 19.1668 12.5V5.83333C19.1668 5.61232 19.2546 5.40036 19.4109 5.24408C19.5672 5.0878 19.7792 5 20.0002 5C20.2212 5 20.4331 5.0878 20.5894 5.24408C20.7457 5.40036 20.8335 5.61232 20.8335 5.83333V12.5C20.8335 12.721 20.7457 12.933 20.5894 13.0893C20.4331 13.2455 20.2212 13.3333 20.0002 13.3333ZM34.9002 35.7333C34.6791 35.7334 34.467 35.6459 34.3102 35.49L30.2435 31.4233C30.0917 31.2662 30.0077 31.0557 30.0096 30.8372C30.0115 30.6187 30.0991 30.4097 30.2536 30.2552C30.4082 30.1006 30.6172 30.013 30.8357 30.0111C31.0542 30.0092 31.2647 30.0932 31.4218 30.245L35.4885 34.3117C35.6047 34.4282 35.6837 34.5765 35.7157 34.7379C35.7477 34.8993 35.7313 35.0666 35.6683 35.2187C35.6054 35.3707 35.4989 35.5007 35.3622 35.5923C35.2255 35.6839 35.0647 35.733 34.9002 35.7333ZM5.10016 35.7333C4.93547 35.7333 4.77448 35.6845 4.63752 35.593C4.50057 35.5015 4.39378 35.3715 4.33066 35.2194C4.26753 35.0673 4.25089 34.8999 4.28284 34.7383C4.31479 34.5768 4.39389 34.4283 4.51016 34.3117L8.57683 30.245C8.734 30.0932 8.9445 30.0092 9.163 30.0111C9.38149 30.013 9.59051 30.1006 9.74501 30.2552C9.89952 30.4097 9.98716 30.6187 9.98906 30.8372C9.99096 31.0557 9.90696 31.2662 9.75516 31.4233L5.6885 35.49C5.61127 35.5673 5.51955 35.6286 5.41859 35.6703C5.31763 35.7121 5.20942 35.7335 5.10016 35.7333ZM20.0002 40C19.7792 40 19.5672 39.9122 19.4109 39.7559C19.2546 39.5996 19.1668 39.3877 19.1668 39.1667V19.1667C19.1668 18.9457 19.2546 18.7337 19.4109 18.5774C19.5672 18.4211 19.7792 18.3333 20.0002 18.3333C20.2212 18.3333 20.4331 18.4211 20.5894 18.5774C20.7457 18.7337 20.8335 18.9457 20.8335 19.1667V39.1667C20.8335 39.3877 20.7457 39.5996 20.5894 39.7559C20.4331 39.9122 20.2212 40 20.0002 40Z" fill="#384BFF"/>
<path d="M20 6.66667C18.1617 6.66667 16.6667 5.17167 16.6667 3.33333C16.6667 1.495 18.1617 0 20 0C21.8383 0 23.3333 1.495 23.3333 3.33333C23.3333 5.17167 21.8383 6.66667 20 6.66667ZM20 1.66667C19.0817 1.66667 18.3333 2.415 18.3333 3.33333C18.3333 4.25167 19.0817 5 20 5C20.9183 5 21.6667 4.25167 21.6667 3.33333C21.6667 2.415 20.9183 1.66667 20 1.66667ZM36.6667 40C34.8283 40 33.3333 38.505 33.3333 36.6667C33.3333 34.8283 34.8283 33.3333 36.6667 33.3333C38.505 33.3333 40 34.8283 40 36.6667C40 38.505 38.505 40 36.6667 40ZM36.6667 35C35.7483 35 35 35.7483 35 36.6667C35 37.585 35.7483 38.3333 36.6667 38.3333C37.585 38.3333 38.3333 37.585 38.3333 36.6667C38.3333 35.7483 37.585 35 36.6667 35ZM3.33333 40C1.495 40 0 38.505 0 36.6667C0 34.8283 1.495 33.3333 3.33333 33.3333C5.17167 33.3333 6.66667 34.8283 6.66667 36.6667C6.66667 38.505 5.17167 40 3.33333 40ZM3.33333 35C2.415 35 1.66667 35.7483 1.66667 36.6667C1.66667 37.585 2.415 38.3333 3.33333 38.3333C4.25167 38.3333 5 37.585 5 36.6667C5 35.7483 4.25167 35 3.33333 35Z" fill="#384BFF"/>
</g>
<defs>
<clipPath id="clip0_7517_401">
<rect width="40" height="40" fill="white"/>
</clipPath>
</defs>
</svg>
