<svg width="30" height="30" viewBox="0 0 30 30" fill="none" xmlns="http://www.w3.org/2000/svg">
<g clip-path="url(#clip0_7518_453)">
<path d="M24.811 19.164C24.8105 18.647 24.6049 18.1514 24.2393 17.7859C23.8738 17.4204 23.3782 17.2148 22.8613 17.2142H16.9609C17.7757 15.2393 17.7787 13.0227 16.9691 11.0456C16.9621 11.0283 16.954 11.0114 16.9448 10.995C16.7784 10.6956 16.5318 10.4486 16.2326 10.2817C15.9334 10.1148 15.5936 10.0348 15.2515 10.0505C14.9093 10.0662 14.5783 10.1771 14.2957 10.3707C14.0131 10.5643 13.7901 10.8329 13.6519 11.1463C13.6301 11.1958 13.617 11.2487 13.6131 11.3027L13.4739 13.28C13.2654 14.4164 12.6522 15.4388 11.7479 16.1578C11.3856 16.285 10.7225 16.7347 8.99243 18.3809V18.3318C8.99217 18.0726 8.88909 17.8241 8.70581 17.6408C8.52253 17.4576 8.27404 17.3545 8.01485 17.3542H3.09386C2.83468 17.3545 2.5862 17.4576 2.40294 17.6408C2.21967 17.8241 2.1166 18.0726 2.11634 18.3318V28.1521C2.11652 28.4113 2.21956 28.6599 2.40283 28.8432C2.58611 29.0265 2.83463 29.1296 3.09386 29.1299H8.01456C8.27374 29.1296 8.52224 29.0266 8.70552 28.8433C8.88879 28.66 8.99187 28.4115 8.99214 28.1524V28.1093C10.3453 28.4078 11.0515 28.7625 11.8753 29.5277C12.1992 29.8358 12.6305 30.0053 13.0775 30H20.705C21.0751 30.0001 21.4376 29.8949 21.7501 29.6965C22.0626 29.4982 22.3121 29.2149 22.4695 28.8799C22.6269 28.5449 22.6857 28.172 22.6389 27.8049C22.5921 27.4377 22.4417 27.0915 22.2054 26.8066C22.8141 26.4405 23.2472 25.7849 23.2472 25.0884C23.2476 24.6551 23.103 24.2341 22.8364 23.8925C23.4564 23.5253 23.9013 22.8475 23.9013 22.1263C23.9017 21.7198 23.7744 21.3234 23.5373 20.9932C23.9109 20.8546 24.2331 20.6051 24.4608 20.2781C24.6884 19.9512 24.8107 19.5624 24.811 19.164ZM8.05464 28.1522C8.05424 28.1627 8.04989 28.1727 8.04246 28.1801C8.03503 28.1876 8.02506 28.1919 8.01456 28.1923H3.09386C3.08336 28.1919 3.0734 28.1875 3.06598 28.1801C3.05855 28.1727 3.05422 28.1627 3.05384 28.1522V18.3319C3.05423 18.3214 3.05857 18.3115 3.06599 18.3041C3.07341 18.2966 3.08337 18.2923 3.09386 18.2919H8.01456C8.02505 18.2923 8.03501 18.2966 8.04244 18.3041C8.04988 18.3115 8.05423 18.3214 8.05464 18.3319V28.1522ZM22.8613 20.1762H21.2321C21.1078 20.1762 20.9885 20.2256 20.9006 20.3135C20.8127 20.4014 20.7633 20.5206 20.7633 20.6449C20.7633 20.7692 20.8127 20.8885 20.9006 20.9764C20.9885 21.0643 21.1078 21.1137 21.2321 21.1137H21.9515C22.2198 21.114 22.4771 21.2208 22.6669 21.4106C22.8566 21.6003 22.9634 21.8576 22.9638 22.1259C22.9638 22.6533 22.4426 23.1898 21.9078 23.2361C21.7108 23.1711 21.5048 23.1381 21.2974 23.1383C21.1731 23.1383 21.0539 23.1876 20.966 23.2756C20.878 23.3635 20.8287 23.4827 20.8287 23.607C20.8287 23.7313 20.878 23.8506 20.966 23.9385C21.0539 24.0264 21.1731 24.0758 21.2974 24.0758C21.4159 24.0756 21.5336 24.0964 21.6449 24.1372C21.6572 24.1426 21.6698 24.1475 21.6827 24.1519C21.868 24.2284 22.0265 24.3582 22.1381 24.5249C22.2497 24.6915 22.3094 24.8875 22.3096 25.088C22.3096 25.6048 21.7677 26.131 21.216 26.1683C21.0494 26.123 20.8775 26.1002 20.7049 26.1003C20.5806 26.1003 20.4614 26.1497 20.3735 26.2376C20.2855 26.3255 20.2362 26.4447 20.2362 26.569C20.2362 26.6934 20.2855 26.8126 20.3735 26.9005C20.4614 26.9884 20.5806 27.0378 20.7049 27.0378C20.8031 27.0377 20.9007 27.052 20.9948 27.0801C21.0058 27.0841 21.0172 27.0877 21.0286 27.0909C21.2562 27.1676 21.449 27.3226 21.5728 27.5284C21.6966 27.7342 21.7432 27.9772 21.7043 28.2142C21.6654 28.4511 21.5435 28.6665 21.3605 28.8219C21.1774 28.9773 20.9451 29.0626 20.705 29.0625H13.0775C12.9735 29.0648 12.87 29.0464 12.7732 29.0084C12.6763 28.9703 12.588 28.9134 12.5133 28.8409C11.5178 27.916 10.6476 27.4949 8.99214 27.1505V19.6825L9.07528 19.6016C11.376 17.3672 11.9396 17.0771 12.0593 17.0419C12.1288 17.0276 12.1941 16.9978 12.2504 16.9546C13.3834 16.0868 14.1506 14.8264 14.4012 13.4214C14.4041 13.405 14.4062 13.3884 14.4074 13.3717L14.5421 11.4589C14.6183 11.3187 14.7302 11.2011 14.8666 11.1181C15.003 11.0352 15.1589 10.9899 15.3184 10.9868C15.478 10.9837 15.6355 11.0229 15.775 11.1005C15.9145 11.1781 16.0309 11.2913 16.1125 11.4285C16.5039 12.3962 16.6796 13.4377 16.6273 14.4803C16.575 15.5229 16.2959 16.5415 15.8096 17.4652C15.7721 17.5367 15.7536 17.6166 15.756 17.6972C15.7585 17.7779 15.7817 17.8566 15.8234 17.9256C15.8651 17.9947 15.924 18.0518 15.9943 18.0915C16.0646 18.1311 16.1439 18.1519 16.2246 18.1519H22.8613C23.1284 18.154 23.3839 18.2615 23.5721 18.4511C23.7603 18.6408 23.8659 18.8971 23.8659 19.1642C23.8659 19.4314 23.7603 19.6877 23.5721 19.8773C23.3839 20.0669 23.1284 20.1745 22.8613 20.1765V20.1762ZM6.46563 19.8316V19.8882C6.46563 20.0125 6.41625 20.1317 6.32834 20.2196C6.24043 20.3075 6.1212 20.3569 5.99688 20.3569C5.87256 20.3569 5.75333 20.3075 5.66543 20.2196C5.57752 20.1317 5.52813 20.0125 5.52813 19.8882V19.8316C5.52813 19.7073 5.57752 19.5881 5.66543 19.5002C5.75333 19.4123 5.87256 19.3629 5.99688 19.3629C6.1212 19.3629 6.24043 19.4123 6.32834 19.5002C6.41625 19.5881 6.46563 19.7073 6.46563 19.8316ZM20.5311 4.01848C20.5028 3.93147 20.4497 3.85464 20.3783 3.79745C20.3069 3.74025 20.2203 3.70521 20.1292 3.69662L16.7695 3.38022L15.4301 0.282717C15.3938 0.19875 15.3337 0.127241 15.2572 0.0770043C15.1808 0.0267679 15.0913 0 14.9998 0C14.9083 0 14.8189 0.0267679 14.7424 0.0770043C14.6659 0.127241 14.6059 0.19875 14.5696 0.282717L13.2303 3.38016L9.87063 3.69656C9.77956 3.70515 9.69299 3.7402 9.62159 3.79738C9.55019 3.85457 9.49709 3.9314 9.46882 4.0184C9.44055 4.1054 9.43836 4.19877 9.46251 4.287C9.48666 4.37523 9.5361 4.45447 9.60474 4.51494L12.1367 6.74572L11.3995 10.0387C11.3795 10.128 11.3861 10.2211 11.4184 10.3067C11.4508 10.3923 11.5074 10.4665 11.5814 10.5203C11.6554 10.5741 11.7436 10.605 11.8349 10.6093C11.9263 10.6136 12.0169 10.5911 12.0957 10.5445L14.9998 8.82586L17.9038 10.5446C17.9826 10.5912 18.0732 10.6137 18.1646 10.6094C18.2559 10.6051 18.3441 10.5742 18.4181 10.5204C18.4921 10.4666 18.5487 10.3924 18.5811 10.3068C18.6134 10.2212 18.62 10.1281 18.6 10.0388L17.8628 6.74584L20.3948 4.51506C20.4635 4.45462 20.513 4.37539 20.5372 4.28715C20.5614 4.19891 20.5593 4.10551 20.5311 4.01848ZM17.0352 6.22576C16.9722 6.28129 16.9252 6.35274 16.8993 6.43262C16.8733 6.51251 16.8693 6.5979 16.8876 6.67987L17.4486 9.18563L15.2389 7.87776C15.1666 7.83496 15.0841 7.81239 15.0001 7.81239C14.9161 7.81239 14.8336 7.83496 14.7613 7.87776L12.5516 9.18563L13.1123 6.67969C13.1306 6.59772 13.1266 6.51233 13.1007 6.43245C13.0747 6.35256 13.0278 6.28112 12.9647 6.22559L11.0381 4.52813L13.5946 4.28731C13.6782 4.27942 13.7581 4.24921 13.8261 4.19984C13.894 4.15046 13.9475 4.08374 13.9808 4.00664L14.9998 1.64994L16.0188 4.00682C16.0521 4.08392 16.1056 4.15064 16.1735 4.20001C16.2415 4.24939 16.3214 4.2796 16.4051 4.28748L18.9616 4.5283L17.0352 6.22576ZM28.7836 6.76524C28.7553 6.67823 28.7022 6.60139 28.6308 6.5442C28.5594 6.48701 28.4728 6.45196 28.3817 6.44338L26.0141 6.22037L25.0701 4.03758C25.0338 3.95361 24.9738 3.8821 24.8973 3.83187C24.8209 3.78163 24.7314 3.75486 24.6399 3.75486C24.5484 3.75486 24.4589 3.78163 24.3825 3.83187C24.306 3.8821 24.2459 3.95361 24.2096 4.03758L23.2659 6.22037L20.8983 6.44338C20.8072 6.45196 20.7206 6.487 20.6492 6.54419C20.5778 6.60138 20.5247 6.67822 20.4964 6.76523C20.4681 6.85224 20.4659 6.94562 20.4901 7.03386C20.5143 7.12211 20.5637 7.20135 20.6324 7.26182L22.4167 8.83383L21.8972 11.1545C21.8773 11.2438 21.8838 11.337 21.9162 11.4225C21.9485 11.5081 22.0052 11.5824 22.0792 11.6361C22.1533 11.6899 22.2414 11.7208 22.3328 11.7251C22.4242 11.7294 22.5148 11.7068 22.5936 11.6602L24.6401 10.449L26.6864 11.6602C26.7651 11.7068 26.8558 11.7293 26.9472 11.725C27.0385 11.7207 27.1267 11.6898 27.2007 11.636C27.2747 11.5823 27.3314 11.508 27.3637 11.4224C27.396 11.3368 27.4026 11.2437 27.3826 11.1544L26.8631 8.83371L28.6474 7.2617C28.716 7.20123 28.7654 7.12201 28.7896 7.0338C28.8137 6.94558 28.8115 6.85223 28.7833 6.76524H28.7836ZM26.0355 8.31381C25.9725 8.36934 25.9256 8.44078 25.8996 8.52067C25.8737 8.60055 25.8696 8.68595 25.888 8.76791L26.2313 10.3013L24.8787 9.50098C24.8064 9.45819 24.724 9.43561 24.6399 9.43561C24.5559 9.43561 24.4735 9.45819 24.4012 9.50098L23.049 10.3013L23.3923 8.76791C23.4106 8.68595 23.4066 8.60055 23.3806 8.52067C23.3547 8.44078 23.3077 8.36934 23.2447 8.31381L22.0656 7.27512L23.6301 7.1277C23.7137 7.11982 23.7937 7.08962 23.8617 7.04024C23.9296 6.99087 23.9831 6.92414 24.0164 6.84703L24.6399 5.40475L25.2635 6.84703C25.2968 6.92414 25.3503 6.99087 25.4182 7.04024C25.4862 7.08962 25.5662 7.11982 25.6498 7.1277L27.2143 7.27512L26.0355 8.31381ZM9.10194 6.44338L6.73434 6.22037L5.78999 4.03758C5.75368 3.95361 5.6936 3.8821 5.61715 3.83187C5.5407 3.78163 5.45122 3.75486 5.35974 3.75486C5.26825 3.75486 5.17877 3.78163 5.10232 3.83187C5.02587 3.8821 4.96579 3.95361 4.92948 4.03758L3.98577 6.22037L1.61817 6.44338C1.52709 6.45196 1.4405 6.487 1.36909 6.54419C1.29768 6.60138 1.24457 6.67822 1.2163 6.76523C1.18803 6.85224 1.18584 6.94562 1.21 7.03386C1.23416 7.12211 1.28362 7.20135 1.35227 7.26182L3.13657 8.83383L2.61702 11.1545C2.59706 11.2438 2.60366 11.3369 2.636 11.4225C2.66833 11.508 2.725 11.5823 2.79901 11.636C2.87302 11.6898 2.96114 11.7207 3.05251 11.725C3.14389 11.7293 3.23451 11.7067 3.31323 11.6602L5.35974 10.449L7.40606 11.6602C7.48479 11.7067 7.57543 11.7293 7.6668 11.725C7.75818 11.7207 7.8463 11.6897 7.9203 11.636C7.99431 11.5822 8.05097 11.508 8.08329 11.4224C8.11561 11.3368 8.12219 11.2436 8.10222 11.1544L7.58266 8.83371L9.36702 7.2617C9.43567 7.20123 9.48513 7.12199 9.50929 7.03375C9.53345 6.94551 9.53127 6.85212 9.503 6.76511C9.47473 6.6781 9.42162 6.60126 9.3502 6.54407C9.27879 6.48688 9.19221 6.45184 9.10112 6.44326L9.10194 6.44338ZM6.75561 8.31381C6.69259 8.36934 6.64565 8.44078 6.61969 8.52067C6.59374 8.60055 6.58973 8.68595 6.60808 8.76791L6.95132 10.3013L5.59851 9.50098C5.52621 9.45819 5.44374 9.43561 5.35974 9.43561C5.27573 9.43561 5.19326 9.45819 5.12097 9.50098L3.76874 10.3013L4.11204 8.76791C4.13039 8.68595 4.12638 8.60055 4.10042 8.52067C4.07447 8.44078 4.02752 8.36934 3.9645 8.31381L2.78548 7.27512L4.34993 7.1277C4.43356 7.11982 4.51354 7.08962 4.5815 7.04024C4.64946 6.99087 4.7029 6.92414 4.73624 6.84703L5.35974 5.40481L5.98329 6.84703C6.01662 6.92413 6.07006 6.99085 6.138 7.04023C6.20595 7.0896 6.28592 7.11981 6.36954 7.1277L7.93399 7.27512L6.75561 8.31381Z" fill="#384BFF"/>
</g>
<defs>
<clipPath id="clip0_7518_453">
<rect width="30" height="30" fill="white"/>
</clipPath>
</defs>
</svg>
