<svg width="30" height="30" viewBox="0 0 30 30" fill="none" xmlns="http://www.w3.org/2000/svg">
<g clip-path="url(#clip0_7518_463)">
<path d="M17.5048 20.1373C16.942 19.896 16.2317 19.7453 15.4688 19.7013V13.5938H14.5312V19.7013C13.7683 19.7453 13.058 19.896 12.4952 20.1373C11.4118 20.6016 11.25 21.2295 11.25 21.5625V27.1875C11.25 27.5205 11.4117 28.1484 12.4952 28.6127C13.1719 28.9028 14.0615 29.0625 15 29.0625C15.9385 29.0625 16.8281 28.9028 17.5048 28.6127C18.5882 28.1484 18.75 27.5205 18.75 27.1875V21.5625C18.75 21.2295 18.5883 20.6016 17.5048 20.1373ZM17.8125 27.1875C17.8125 27.518 16.7447 28.125 15 28.125C13.2553 28.125 12.1875 27.518 12.1875 27.1875V25.6509C12.2876 25.7056 12.3903 25.7554 12.4952 25.8002C13.1719 26.0903 14.0615 26.25 15 26.25C15.9385 26.25 16.8281 26.0903 17.5048 25.8002C17.6097 25.7554 17.7124 25.7056 17.8125 25.6509V27.1875ZM17.8125 24.375C17.8125 24.7055 16.7447 25.3125 15 25.3125C13.2553 25.3125 12.1875 24.7055 12.1875 24.375V22.8384C12.2876 22.8931 12.3903 22.9429 12.4952 22.9877C13.1719 23.2778 14.0615 23.4375 15 23.4375C15.9385 23.4375 16.8281 23.2778 17.5048 22.9877C17.6097 22.9429 17.7124 22.8931 17.8125 22.8384V24.375ZM15 22.5C13.2553 22.5 12.1875 21.893 12.1875 21.5625C12.1875 21.232 13.2553 20.625 15 20.625C16.7447 20.625 17.8125 21.232 17.8125 21.5625C17.8125 21.893 16.7447 22.5 15 22.5Z" fill="#384BFF"/>
<path d="M27.8173 20.1373C27.1406 19.8472 26.251 19.6875 25.3125 19.6875C24.374 19.6875 23.4844 19.8472 22.8077 20.1373C22.3647 20.3271 22.076 20.5443 21.8892 20.7575L17.8125 16.6809V13.5938H16.875V17.0691L21.5625 21.7567V27.1875C21.5625 27.5205 21.7242 28.1484 22.8077 28.6127C23.4844 28.9028 24.374 29.0625 25.3125 29.0625C26.251 29.0625 27.1406 28.9028 27.8173 28.6127C28.9007 28.1484 29.0625 27.5205 29.0625 27.1875V21.5625C29.0625 21.2295 28.9008 20.6016 27.8173 20.1373ZM28.125 27.1875C28.125 27.518 27.0572 28.125 25.3125 28.125C23.5678 28.125 22.5 27.518 22.5 27.1875V25.6509C22.6001 25.7056 22.7028 25.7554 22.8077 25.8002C23.4844 26.0903 24.374 26.25 25.3125 26.25C26.251 26.25 27.1406 26.0903 27.8173 25.8002C27.9222 25.7554 28.0249 25.7056 28.125 25.6509V27.1875ZM28.125 24.375C28.125 24.7055 27.0572 25.3125 25.3125 25.3125C23.5678 25.3125 22.5 24.7055 22.5 24.375V22.8384C22.6001 22.8931 22.7028 22.9429 22.8077 22.9877C23.4844 23.2778 24.374 23.4375 25.3125 23.4375C26.251 23.4375 27.1406 23.2778 27.8173 22.9877C27.9222 22.9429 28.0249 22.8931 28.125 22.8384V24.375ZM25.3125 22.5C23.5678 22.5 22.5 21.893 22.5 21.5625C22.5 21.232 23.5678 20.625 25.3125 20.625C27.0572 20.625 28.125 21.232 28.125 21.5625C28.125 21.893 27.0572 22.5 25.3125 22.5ZM13.125 13.5938H12.1875V16.6809L8.11084 20.7575C7.92404 20.5443 7.63529 20.3271 7.19232 20.1373C6.51557 19.8472 5.626 19.6875 4.6875 19.6875C3.749 19.6875 2.85938 19.8472 2.18268 20.1373C1.09928 20.6016 0.9375 21.2295 0.9375 21.5625V27.1875C0.9375 27.5205 1.09922 28.1484 2.18268 28.6127C2.85943 28.9028 3.749 29.0625 4.6875 29.0625C5.626 29.0625 6.51562 28.9028 7.19232 28.6127C8.27572 28.1484 8.4375 27.5205 8.4375 27.1875V21.7567L13.125 17.0692V13.5938ZM7.5 27.1875C7.5 27.518 6.43219 28.125 4.6875 28.125C2.94281 28.125 1.875 27.518 1.875 27.1875V25.6509C1.9751 25.7056 2.07777 25.7554 2.18268 25.8002C2.85943 26.0903 3.749 26.25 4.6875 26.25C5.626 26.25 6.51562 26.0903 7.19232 25.8002C7.29723 25.7554 7.39991 25.7056 7.5 25.6509V27.1875ZM7.5 24.375C7.5 24.7055 6.43219 25.3125 4.6875 25.3125C2.94281 25.3125 1.875 24.7055 1.875 24.375V22.8384C1.9751 22.8931 2.07777 22.9429 2.18268 22.9877C2.85943 23.2778 3.749 23.4375 4.6875 23.4375C5.626 23.4375 6.51562 23.2778 7.19232 22.9877C7.29723 22.9429 7.39991 22.8931 7.5 22.8384V24.375ZM4.6875 22.5C2.94281 22.5 1.875 21.893 1.875 21.5625C1.875 21.232 2.94281 20.625 4.6875 20.625C6.43219 20.625 7.5 21.232 7.5 21.5625C7.5 21.893 6.43219 22.5 4.6875 22.5Z" fill="#384BFF"/>
<path d="M7.96875 16.8751H10.3125V15.9376H7.96875C6.84987 15.9376 5.77681 15.4931 4.98564 14.702C4.19447 13.9108 3.75 12.8377 3.75 11.7188C3.75 10.6 4.19447 9.52691 4.98564 8.73574C5.77681 7.94457 6.84987 7.5001 7.96875 7.5001C7.97402 7.5001 7.97941 7.50045 7.98475 7.50051C7.97426 7.6564 7.96892 7.8126 7.96875 7.96885C7.96584 9.40599 8.40602 10.8091 9.22934 11.987L9.99826 11.4507C9.48355 10.7108 9.13938 9.86586 8.99056 8.97686C8.84174 8.08787 8.89197 7.17693 9.13763 6.30969C9.3833 5.44245 9.81827 4.6405 10.4112 3.96163C11.0042 3.28275 11.7403 2.74386 12.5666 2.38378C13.393 2.02371 14.2889 1.85141 15.1898 1.8793C16.0907 1.9072 16.9743 2.13459 17.7767 2.5451C18.5792 2.95561 19.2806 3.53901 19.8304 4.25327C20.3802 4.96752 20.7647 5.79485 20.9563 6.67563C19.8021 6.92329 18.7676 7.55885 18.025 8.47647C17.2824 9.39409 16.8765 10.5384 16.875 11.7188H17.8125C17.8125 10.8845 18.0599 10.0688 18.5235 9.37504C18.987 8.68127 19.6459 8.14054 20.4168 7.82123C21.1877 7.50192 22.0359 7.41838 22.8543 7.58116C23.6726 7.74394 24.4244 8.14574 25.0144 8.73574C25.6044 9.32574 26.0062 10.0775 26.1689 10.8958C26.3317 11.7142 26.2482 12.5624 25.9289 13.3333C25.6096 14.1042 25.0688 14.763 24.3751 15.2266C23.6813 15.6902 22.8656 15.9376 22.0312 15.9376H19.2188V16.8751H22.0312C23.3988 16.8751 24.7103 16.3319 25.6773 15.3649C26.6443 14.3979 27.1875 13.0864 27.1875 11.7188C27.1875 10.3513 26.6443 9.03981 25.6773 8.07283C24.7103 7.10584 23.3988 6.5626 22.0312 6.5626C21.9842 6.5626 21.9373 6.56326 21.8905 6.56459C21.5666 4.97603 20.7037 3.54819 19.4479 2.52277C18.1921 1.49734 16.6206 0.937321 14.9993 0.9375C13.3781 0.937679 11.8067 1.49805 10.5511 2.52375C9.2956 3.54945 8.43302 4.97748 8.10943 6.56611C8.06256 6.56482 8.01568 6.5626 7.96875 6.5626C6.60123 6.5626 5.28972 7.10584 4.32273 8.07283C3.35575 9.03981 2.8125 10.3513 2.8125 11.7188C2.8125 13.0864 3.35575 14.3979 4.32273 15.3649C5.28972 16.3319 6.60123 16.8751 7.96875 16.8751Z" fill="#384BFF"/>
</g>
<defs>
<clipPath id="clip0_7518_463">
<rect width="30" height="30" fill="white"/>
</clipPath>
</defs>
</svg>
