<svg width="40" height="40" viewBox="0 0 40 40" fill="none" xmlns="http://www.w3.org/2000/svg">
<g clip-path="url(#clip0_7517_426)">
<path d="M4 40H20C21.0605 39.9989 22.0773 39.5772 22.8273 38.8273C23.5772 38.0773 23.9989 37.0605 24 36C24 35.8232 23.9298 35.6536 23.8047 35.5286C23.6797 35.4036 23.5101 35.3333 23.3333 35.3333C23.1565 35.3333 22.987 35.4036 22.8619 35.5286C22.7369 35.6536 22.6667 35.8232 22.6667 36C22.6667 36.7072 22.3857 37.3855 21.8856 37.8856C21.3855 38.3857 20.7072 38.6667 20 38.6667H4C3.29276 38.6667 2.61448 38.3857 2.11438 37.8856C1.61428 37.3855 1.33333 36.7072 1.33333 36V4C1.33333 3.29276 1.61428 2.61448 2.11438 2.11438C2.61448 1.61428 3.29276 1.33333 4 1.33333H4.25467L5.702 4.228C5.86708 4.56097 6.12215 4.84102 6.4383 5.03639C6.75445 5.23176 7.11902 5.33463 7.49067 5.33333H16.5093C16.881 5.33463 17.2455 5.23176 17.5617 5.03639C17.8778 4.84102 18.1329 4.56097 18.298 4.228L19.7453 1.33333H20C20.7072 1.33333 21.3855 1.61428 21.8856 2.11438C22.3857 2.61448 22.6667 3.29276 22.6667 4V5.33333C22.6667 5.51014 22.7369 5.67971 22.8619 5.80474C22.987 5.92976 23.1565 6 23.3333 6C23.5101 6 23.6797 5.92976 23.8047 5.80474C23.9298 5.67971 24 5.51014 24 5.33333V4C23.9989 2.93946 23.5772 1.92266 22.8273 1.17274C22.0773 0.422826 21.0605 0.00105895 20 0L4 0C2.93946 0.00105895 1.92266 0.422826 1.17274 1.17274C0.422826 1.92266 0.00105895 2.93946 0 4L0 36C0.00105895 37.0605 0.422826 38.0773 1.17274 38.8273C1.92266 39.5772 2.93946 39.9989 4 40ZM17.1053 3.63133C17.0504 3.74235 16.9654 3.83574 16.8601 3.9009C16.7547 3.96606 16.6332 4.0004 16.5093 4H7.49067C7.3668 4.0004 7.24529 3.96606 7.13994 3.9009C7.0346 3.83574 6.94962 3.74235 6.89467 3.63133L5.74533 1.33333H18.2547L17.1053 3.63133Z" fill="#384BFF"/>
<path d="M17.3332 37.333C17.51 37.333 17.6796 37.2628 17.8046 37.1377C17.9296 37.0127 17.9999 36.8432 17.9999 36.6663C17.9999 36.4895 17.9296 36.32 17.8046 36.1949C17.6796 36.0699 17.51 35.9997 17.3332 35.9997H6.66654C6.48973 35.9997 6.32016 36.0699 6.19514 36.1949C6.07011 36.32 5.99988 36.4895 5.99988 36.6663C5.99988 36.8432 6.07011 37.0127 6.19514 37.1377C6.32016 37.2628 6.48973 37.333 6.66654 37.333H17.3332ZM35.9999 7.33301H17.3332C16.2727 7.33407 15.2559 7.75583 14.506 8.50575C13.756 9.25567 13.3343 10.2725 13.3332 11.333V15.5997L6.03454 19.4923C5.82221 19.6064 5.64476 19.7758 5.52106 19.9827C5.39736 20.1895 5.33203 20.426 5.33203 20.667C5.33203 20.908 5.39736 21.1445 5.52106 21.3514C5.64476 21.5582 5.82221 21.7276 6.03454 21.8417L13.3332 25.733V29.9997C13.3343 31.0602 13.756 32.077 14.506 32.8269C15.2559 33.5768 16.2727 33.9986 17.3332 33.9997H35.9999C37.0604 33.9986 38.0772 33.5768 38.8271 32.8269C39.577 32.077 39.9988 31.0602 39.9999 29.9997V11.333C39.9988 10.2725 39.577 9.25567 38.8271 8.50575C38.0772 7.75583 37.0604 7.33407 35.9999 7.33301ZM38.6665 29.9997C38.6665 30.7069 38.3856 31.3852 37.8855 31.8853C37.3854 32.3854 36.7071 32.6663 35.9999 32.6663H17.3332C16.626 32.6663 15.9477 32.3854 15.4476 31.8853C14.9475 31.3852 14.6665 30.7069 14.6665 29.9997V25.333C14.6665 25.2122 14.6337 25.0938 14.5716 24.9902C14.5095 24.8866 14.4204 24.8019 14.3139 24.745L6.66654 20.6663L14.3159 16.5863C14.4218 16.5293 14.5104 16.4447 14.5721 16.3414C14.6338 16.2381 14.6665 16.12 14.6665 15.9997V11.333C14.6665 10.6258 14.9475 9.94749 15.4476 9.44739C15.9477 8.94729 16.626 8.66634 17.3332 8.66634H35.9999C36.7071 8.66634 37.3854 8.94729 37.8855 9.44739C38.3856 9.94749 38.6665 10.6258 38.6665 11.333V29.9997Z" fill="#384BFF"/>
<path d="M32.6668 14.6664H29.9162C30.0417 14.1776 30.0262 13.6633 29.8717 13.1829C29.7171 12.7025 29.4298 12.2757 29.0428 11.9517C28.7397 11.7002 28.3849 11.5184 28.0037 11.4193C27.6225 11.3202 27.2241 11.3063 26.8368 11.3784C26.3215 11.4744 25.8461 11.7207 25.4704 12.0864C25.0947 12.452 24.8355 12.9205 24.7255 13.4331C24.639 13.8406 24.6476 14.2627 24.7508 14.6664H22.0002C21.4697 14.6664 20.961 14.8771 20.586 15.2522C20.2109 15.6273 20.0002 16.136 20.0002 16.6664V19.4171C19.5112 19.2962 18.9983 19.3139 18.5188 19.4681C18.0393 19.6224 17.6123 19.9071 17.2855 20.2904C16.9232 20.7237 16.7078 21.2609 16.6704 21.8245C16.633 22.3881 16.7756 22.9491 17.0775 23.4265C17.3795 23.9038 17.8252 24.273 18.3504 24.4808C18.8757 24.6885 19.4534 24.7241 20.0002 24.5824V27.3331C20.0002 27.8635 20.2109 28.3722 20.586 28.7473C20.961 29.1223 21.4697 29.3331 22.0002 29.3331H25.2295C25.3982 29.3333 25.5641 29.2908 25.7119 29.2094C25.8596 29.128 25.9843 29.0105 26.0742 28.8678C26.1641 28.7251 26.2164 28.562 26.226 28.3936C26.2357 28.2252 26.2025 28.0571 26.1295 27.9051C26.0436 27.7267 25.9994 27.5311 26.0002 27.3331C25.9976 27.0033 26.1173 26.6842 26.3362 26.4376C26.555 26.1909 26.8576 26.0341 27.1853 25.9974C27.5131 25.9608 27.8428 26.0469 28.1107 26.2392C28.3787 26.4314 28.5659 26.7162 28.6362 27.0384C28.7008 27.3337 28.6648 27.6417 28.5328 27.9137C28.3848 28.2164 28.4048 28.5737 28.5848 28.8577C28.7682 29.1537 29.0915 29.3337 29.4402 29.3331H32.6668C33.1973 29.3331 33.706 29.1223 34.0811 28.7473C34.4561 28.3722 34.6668 27.8635 34.6668 27.3331V24.1057C34.6668 23.7577 34.4868 23.4344 34.1915 23.2511C34.0517 23.1622 33.8913 23.1107 33.7259 23.1017C33.5604 23.0927 33.3955 23.1265 33.2468 23.1997C32.9724 23.3327 32.6607 23.3675 32.3637 23.2985C32.0667 23.2295 31.8023 23.0608 31.6147 22.8205C31.427 22.5802 31.3273 22.2828 31.3323 21.9779C31.3373 21.673 31.4467 21.3791 31.6422 21.1451C31.8343 20.9216 32.0939 20.7667 32.3818 20.7037C32.6697 20.6407 32.9702 20.673 33.2382 20.7957C33.3903 20.8679 33.5583 20.9005 33.7264 20.8905C33.8945 20.8805 34.0574 20.8281 34.1999 20.7384C34.3424 20.6486 34.4599 20.5243 34.5415 20.377C34.6231 20.2297 34.6663 20.0641 34.6668 19.8957V16.6664C34.6668 16.136 34.4561 15.6273 34.0811 15.2522C33.706 14.8771 33.1973 14.6664 32.6668 14.6664ZM33.3335 19.4171C32.8445 19.2962 32.3316 19.3139 31.8521 19.4681C31.3726 19.6224 30.9456 19.9071 30.6188 20.2904C30.2565 20.7237 30.0411 21.2609 30.0037 21.8245C29.9664 22.3881 30.1089 22.9491 30.4108 23.4265C30.7128 23.9038 31.1585 24.273 31.6838 24.4808C32.209 24.6885 32.7867 24.7241 33.3335 24.5824V27.3331C33.3335 27.5099 33.2633 27.6794 33.1382 27.8045C33.0132 27.9295 32.8436 27.9997 32.6668 27.9997H29.9162C30.0194 27.5963 30.028 27.1744 29.9415 26.7671C29.778 26.0787 29.3478 25.4835 28.7455 25.1124C28.1432 24.7413 27.4182 24.6246 26.7298 24.7881C26.0415 24.9515 25.4463 25.3817 25.0752 25.984C24.704 26.5863 24.5874 27.3114 24.7508 27.9997H22.0002C21.8234 27.9997 21.6538 27.9295 21.5288 27.8045C21.4037 27.6794 21.3335 27.5099 21.3335 27.3331V24.1057C21.3335 23.7577 21.1535 23.4344 20.8582 23.2511C20.7184 23.1622 20.558 23.1107 20.3926 23.1017C20.2271 23.0927 20.0621 23.1265 19.9135 23.1997C19.6391 23.3327 19.3274 23.3675 19.0304 23.2985C18.7334 23.2295 18.469 23.0608 18.2813 22.8205C18.0936 22.5802 17.994 22.2828 17.999 21.9779C18.004 21.673 18.1134 21.3791 18.3088 21.1451C18.5009 20.9215 18.7605 20.7666 19.0484 20.7035C19.3363 20.6405 19.6369 20.6729 19.9048 20.7957C20.057 20.8679 20.2249 20.9005 20.393 20.8905C20.5612 20.8805 20.724 20.8281 20.8665 20.7384C21.009 20.6486 21.1265 20.5243 21.2082 20.377C21.2898 20.2297 21.3329 20.0641 21.3335 19.8957V16.6664C21.3335 16.4896 21.4037 16.32 21.5288 16.195C21.6538 16.07 21.8234 15.9997 22.0002 15.9997H25.2268C25.3982 16.0001 25.5668 15.9566 25.7167 15.8734C25.8665 15.7902 25.9925 15.6701 26.0828 15.5244C26.2628 15.2397 26.2815 14.8824 26.1335 14.5797C26.0022 14.3077 25.9661 13.9994 26.0308 13.7044C26.1011 13.3821 26.2884 13.0973 26.5564 12.9051C26.8244 12.7128 27.1542 12.6267 27.482 12.6635C27.8098 12.7002 28.1124 12.8571 28.3312 13.1039C28.55 13.3507 28.6696 13.6699 28.6668 13.9997C28.6676 14.1977 28.6234 14.3933 28.5375 14.5717C28.4645 14.7238 28.4313 14.8919 28.441 15.0602C28.4506 15.2286 28.5029 15.3918 28.5928 15.5345C28.6828 15.6772 28.8074 15.7947 28.9551 15.8761C29.1029 15.9574 29.2688 16 29.4375 15.9997H32.6668C32.8436 15.9997 33.0132 16.07 33.1382 16.195C33.2633 16.32 33.3335 16.4896 33.3335 16.6664V19.4171Z" fill="#384BFF"/>
</g>
<defs>
<clipPath id="clip0_7517_426">
<rect width="40" height="40" fill="white"/>
</clipPath>
</defs>
</svg>
