<svg width="40" height="40" viewBox="0 0 40 40" fill="none" xmlns="http://www.w3.org/2000/svg">
<path d="M35.2 6.0905C35.994 6.0905 36.6364 5.44808 36.6364 4.65414C36.6364 3.8602 35.994 3.21777 35.2 3.21777C34.4061 3.21777 33.7637 3.8602 33.7637 4.65414C33.7637 5.44808 34.4122 6.0905 35.2 6.0905ZM35.2 4.24202C35.4303 4.24202 35.6182 4.42989 35.6182 4.6602C35.6182 4.8905 35.4303 5.07838 35.2 5.07838C34.9637 5.07838 34.7819 4.89656 34.7819 4.6602C34.7819 4.42383 34.9697 4.24202 35.2 4.24202Z" fill="#384BFF"/>
<path d="M36.7942 0.896484H7.26689C6.14568 0.896484 5.23053 1.81164 5.23053 2.93285V6.04194H3.20629C2.08507 6.04194 1.16992 6.95709 1.16992 8.0783V33.6116C1.16992 34.7328 2.08507 35.648 3.20629 35.648H16.7396V38.5935C16.7396 38.8722 16.9699 39.1025 17.2487 39.1025H26.8123C27.0911 39.1025 27.3214 38.8722 27.3214 38.5935V35.648H32.7336C33.8548 35.648 34.7699 34.7328 34.7699 33.6116V30.5025H36.7942C37.9154 30.5025 38.8305 29.5874 38.8305 28.4662V2.93285C38.8305 1.81164 37.9154 0.896484 36.7942 0.896484ZM6.24871 2.93285C6.24871 2.36921 6.70932 1.91467 7.26689 1.91467H36.7942C37.3578 1.91467 37.8123 2.37527 37.8123 2.93285V7.39951H18.4911L16.2184 5.04194C16.0426 4.86012 15.8002 4.75709 15.5517 4.75709H10.5457C10.0366 4.75709 9.61841 5.17527 9.61841 5.68436V7.39951H6.24871V2.93285ZM3.20629 34.6359C2.64265 34.6359 2.1881 34.1753 2.1881 33.6177V8.0783C2.1881 7.51467 2.64871 7.06012 3.20629 7.06012H5.23053V28.4722C5.23053 29.5935 6.14568 30.5086 7.26689 30.5086H18.3214C18.5214 30.8965 18.6123 31.3328 18.576 31.7813H17.7881C17.2063 31.7813 16.7396 32.2541 16.7396 32.8298V34.6359H3.20629ZM21.5275 23.9753C21.6305 23.7935 21.8184 23.6783 22.0305 23.6783C22.3457 23.6783 22.6002 23.9328 22.6002 24.248C22.6002 24.4541 22.4911 24.6419 22.3154 24.745C22.1214 24.8601 21.8911 24.848 21.6548 24.7147C21.6235 24.6986 21.5981 24.6732 21.582 24.6419C21.3881 24.3328 21.4669 24.0904 21.5275 23.9753ZM21.5214 22.7571C21.148 22.8813 20.8345 23.1407 20.6427 23.4844C20.3517 24.0056 20.3881 24.6419 20.7275 25.1874C20.8366 25.3571 20.982 25.4965 21.1578 25.5995C21.4366 25.7571 21.7396 25.8419 22.0366 25.8419C22.3154 25.8419 22.5881 25.7692 22.8305 25.6298C23.3154 25.345 23.6184 24.8177 23.6184 24.2541C23.6184 23.5571 23.1639 22.9692 22.5396 22.7571V20.1389L27.0426 28.2662C27.0366 28.2722 27.0305 28.2844 27.0123 28.2904C25.4184 28.7025 24.376 30.1935 24.4608 31.7813H19.6063C19.6972 30.1874 18.6487 28.6965 17.0245 28.2419L21.5214 20.1389V22.7571ZM26.3033 38.0844H17.7578L17.7881 32.7935H26.273C26.2911 32.7935 26.3033 32.8056 26.3033 32.8238V38.0844ZM33.7517 33.6116C33.7517 34.1753 33.2911 34.6298 32.7336 34.6298H27.3214V32.8238C27.3214 32.2419 26.8487 31.7753 26.273 31.7753H25.4851C25.4487 31.3268 25.5457 30.8904 25.7396 30.5025H33.7517V33.6116ZM36.7942 29.4904H26.7275C26.8911 29.3995 27.0669 29.3207 27.2608 29.2722C27.582 29.1874 27.8426 28.9632 27.976 28.6601C28.1033 28.3632 28.0851 28.0298 27.9275 27.745L22.7154 18.3571C22.582 18.1086 22.3214 17.951 22.0366 17.951C21.7457 17.9571 21.4851 18.1025 21.3457 18.351L16.1275 27.745C15.9699 28.0298 15.9578 28.3692 16.0851 28.6662C16.2123 28.9692 16.473 29.1874 16.7942 29.2722C16.9881 29.3207 17.1578 29.3995 17.3275 29.4904H7.26689C6.70326 29.4904 6.24871 29.0298 6.24871 28.4722V8.4177H9.70326C10.2123 8.4177 10.6305 7.99951 10.6305 7.49042V5.77527H15.5093L17.782 8.13285C17.9578 8.31467 18.2002 8.4177 18.4487 8.4177H37.8123V28.4662C37.8123 29.0298 37.3578 29.4904 36.7942 29.4904Z" fill="#384BFF"/>
<path d="M31.7333 6.0905C32.5273 6.0905 33.1697 5.44808 33.1697 4.65414C33.1697 3.8602 32.5273 3.21777 31.7333 3.21777C30.9394 3.21777 30.297 3.8602 30.297 4.65414C30.297 5.44808 30.9394 6.0905 31.7333 6.0905ZM31.7333 4.24202C31.9636 4.24202 32.1515 4.42989 32.1515 4.6602C32.1515 4.8905 31.9636 5.07838 31.7333 5.07838C31.497 5.07838 31.3152 4.89656 31.3152 4.6602C31.3152 4.42383 31.503 4.24202 31.7333 4.24202ZM28.2606 6.0905C29.0546 6.0905 29.697 5.44808 29.697 4.65414C29.697 3.8602 29.0546 3.21777 28.2606 3.21777C27.4667 3.21777 26.8242 3.8602 26.8242 4.65414C26.8242 5.44808 27.4667 6.0905 28.2606 6.0905ZM28.2606 4.24202C28.4909 4.24202 28.6788 4.42989 28.6788 4.6602C28.6788 4.8905 28.4909 5.07838 28.2606 5.07838C28.0242 5.07838 27.8424 4.89656 27.8424 4.6602C27.8424 4.42383 28.0303 4.24202 28.2606 4.24202ZM31.8424 12.8541C31.5455 13.1511 31.3576 13.5269 31.2849 13.9269H24.1636V13.1269C24.1636 12.5814 23.7212 12.139 23.1758 12.139H20.8788C20.3333 12.139 19.8909 12.5814 19.8909 13.1269V13.9269H12.7758C12.7091 13.5329 12.5212 13.1572 12.2182 12.8481C11.4485 12.0905 10.1333 12.1026 9.38182 12.8541C9.00001 13.236 8.79395 13.739 8.79395 14.2723C8.79395 14.8117 9.00607 15.3208 9.38182 15.6905C9.76364 16.0844 10.2727 16.2844 10.8 16.2844C11.1333 16.2844 11.4727 16.2057 11.7939 16.042C12.144 15.8627 12.4252 15.573 12.5939 15.2178C12.6364 15.1269 12.6727 15.036 12.703 14.945H17.6424C14.9576 16.2541 12.9333 18.7147 12.2303 21.6844H11.4424C10.897 21.6844 10.4546 22.1269 10.4546 22.6723V24.9693C10.4546 25.5147 10.897 25.9572 11.4424 25.9572H13.7394C14.2849 25.9572 14.7273 25.5147 14.7273 24.9693V22.6723C14.7273 22.1269 14.2849 21.6844 13.7394 21.6844H13.2788C14.1273 18.4844 16.6909 15.9753 19.9091 15.1996V15.4178C19.9091 15.9632 20.3515 16.4057 20.897 16.4057H23.1939C23.7394 16.4057 24.1818 15.9632 24.1818 15.4178V15.1996C27.3939 15.9753 29.9576 18.4844 30.8121 21.6844H30.3939C29.8485 21.6844 29.4061 22.1269 29.4061 22.6723V24.9693C29.4061 25.5147 29.8485 25.9572 30.3939 25.9572H32.6909C33.2364 25.9572 33.6788 25.5147 33.6788 24.9693V22.6723C33.6788 22.1269 33.2364 21.6844 32.6909 21.6844H31.8606C31.1515 18.7147 29.1273 16.2481 26.4485 14.945H31.4C31.497 15.2238 31.6546 15.4784 31.8667 15.6905C32.2485 16.0844 32.7576 16.2844 33.2849 16.2844C33.6182 16.2844 33.9576 16.2057 34.2788 16.042C34.6289 15.8627 34.91 15.573 35.0788 15.2178C35.4727 14.3875 35.3333 13.4844 34.7091 12.8481C33.9152 12.0966 32.6 12.1026 31.8424 12.8541ZM11.6667 14.7875C11.5939 14.9329 11.4727 15.0602 11.3273 15.1329C10.8 15.3996 10.3455 15.2299 10.097 14.9693C9.9091 14.7875 9.80607 14.539 9.80607 14.2723C9.80607 14.0117 9.9091 13.7632 10.097 13.5693C10.2849 13.3814 10.5333 13.2784 10.8 13.2784C11.0606 13.2784 11.3152 13.3814 11.497 13.5632C11.8121 13.8905 11.8727 14.345 11.6667 14.7875ZM13.7273 24.939L11.4606 24.9693L11.4303 22.7026H13.697L13.7273 24.939ZM32.6727 24.939L30.4061 24.9693L30.3758 22.7026H32.6424L32.6727 24.939ZM20.9152 15.4238L20.903 14.6602C20.9152 14.6057 20.9152 14.5511 20.9091 14.4905V14.4844C20.9091 14.4663 20.9212 14.4541 20.9212 14.436C20.9212 14.4057 20.9091 14.3814 20.903 14.3572L20.8849 13.1632H23.1515L23.1697 14.3572C23.1636 14.3875 23.1515 14.4117 23.1515 14.442C23.1515 14.4602 23.1576 14.4723 23.1636 14.4905V14.4966C23.1515 14.5753 23.1576 14.6481 23.1758 14.7147L23.1879 15.3996L20.9152 15.4238ZM34.1333 14.7875C34.0606 14.9329 33.9394 15.0602 33.7939 15.1329C33.2667 15.3996 32.8121 15.2299 32.5636 14.9693C32.3758 14.7875 32.2727 14.539 32.2727 14.2723C32.2727 14.0117 32.3758 13.7632 32.5636 13.5693C32.7515 13.3814 33 13.2784 33.2667 13.2784C33.5273 13.2784 33.7818 13.3814 33.9636 13.5632C34.2788 13.8905 34.3394 14.345 34.1333 14.7875Z" fill="#384BFF"/>
</svg>
