<svg width="30" height="30" viewBox="0 0 30 30" fill="none" xmlns="http://www.w3.org/2000/svg">
<path d="M11.9379 15.5605H10.9821C10.7291 15.5605 10.5244 15.7655 10.5244 16.0183C10.5244 16.2711 10.7291 16.476 10.9821 16.476H11.9379C12.1909 16.476 12.3956 16.2711 12.3956 16.0183C12.3956 15.7655 12.1909 15.5605 11.9379 15.5605Z" fill="#384BFF"/>
<path d="M28.115 12.1065H22.5662V3.58631C22.5662 2.43523 21.6297 1.49902 20.4791 1.49902H2.43965C1.28904 1.49902 0.352539 2.43529 0.352539 3.58631V16.2045C0.352539 17.3555 1.28904 18.2918 2.44006 18.2918H9.2275V19.8952H8.0715C7.01834 19.8952 6.16146 20.7519 6.16146 21.805V22.3153H5.20932C4.95631 22.3153 4.75158 22.5202 4.75158 22.773C4.75158 23.0258 4.95631 23.2307 5.20932 23.2307H17.7104C17.9634 23.2307 18.1681 23.0258 18.1681 22.773C18.1681 22.5202 17.9634 22.3153 17.7104 22.3153H16.7582V21.805C16.7582 20.7519 15.9013 19.8952 14.8481 19.8952H13.6922V18.2918H19.62V26.9677C19.62 27.813 20.3075 28.5005 21.1528 28.5005H28.115C28.9602 28.5005 29.6478 27.8131 29.6478 26.9677V13.6395C29.6478 12.7943 28.9602 12.1065 28.115 12.1065ZM20.5354 16.0958H28.7322V24.5112H20.5354V16.0958ZM28.7323 13.6395V15.1804H20.5354V13.6395C20.5354 13.2989 20.8126 13.022 21.1528 13.022H28.115C28.4552 13.022 28.7323 13.2989 28.7323 13.6395ZM1.26801 3.58631C1.26801 2.94014 1.79371 2.41449 2.43959 2.41449H20.4791C21.125 2.41449 21.6507 2.9402 21.6507 3.58631V12.1065H21.1527C20.3074 12.1065 19.6199 12.7943 19.6199 13.6396V13.7453H1.26801V3.58631ZM13.2345 20.8107H14.8482C16.0771 20.8107 15.8216 22.2437 15.8428 22.3153H7.07693V21.8051C7.07693 21.2568 7.52307 20.8107 8.0715 20.8107H9.68524C9.74535 20.8107 9.80488 20.7989 9.86042 20.7759C9.91596 20.7529 9.96643 20.7192 10.0089 20.6767C10.0514 20.6342 10.0852 20.5837 10.1082 20.5282C10.1312 20.4726 10.143 20.4131 10.143 20.353V18.2918H12.7768V20.353C12.7767 20.4131 12.7886 20.4726 12.8116 20.5282C12.8346 20.5837 12.8683 20.6342 12.9108 20.6767C12.9533 20.7192 13.0038 20.7529 13.0593 20.7759C13.1148 20.7989 13.1744 20.8107 13.2345 20.8107ZM2.44012 17.3763C1.79377 17.3763 1.26807 16.8506 1.26807 16.2045V14.6623H19.62V17.3763H2.44012ZM28.7323 26.9678C28.7323 27.3082 28.4552 27.5851 28.115 27.5851H21.1528C20.8126 27.5851 20.5354 27.3082 20.5354 26.9678V25.4267H28.7322V26.9678H28.7323Z" fill="#384BFF"/>
<path d="M23.7257 14.559H25.8808C26.4867 14.559 26.4862 13.6436 25.8808 13.6436H23.7257C23.1198 13.6436 23.1204 14.559 23.7257 14.559ZM24.3914 26.9637H24.8759C25.129 26.9637 25.3337 26.7588 25.3337 26.506C25.3337 26.2532 25.129 26.0483 24.8759 26.0483H24.3914C24.1384 26.0483 23.9336 26.2532 23.9336 26.506C23.9336 26.7588 24.1384 26.9637 24.3914 26.9637Z" fill="#384BFF"/>
</svg>
