<svg width="40" height="40" viewBox="0 0 40 40" fill="none" xmlns="http://www.w3.org/2000/svg">
<g clip-path="url(#clip0_7517_368)">
<path d="M20 16.667C21.1867 16.667 22.3467 16.3151 23.3334 15.6558C24.3201 14.9965 25.0892 14.0595 25.5433 12.9631C25.9974 11.8667 26.1162 10.6603 25.8847 9.49645C25.6532 8.33257 25.0818 7.26347 24.2426 6.42435C23.4035 5.58524 22.3344 5.01379 21.1705 4.78228C20.0067 4.55077 18.8003 4.66959 17.7039 5.12372C16.6075 5.57784 15.6705 6.34688 15.0112 7.33357C14.3519 8.32027 14 9.48031 14 10.667C14.0018 12.2578 14.6345 13.7829 15.7593 14.9077C16.8841 16.0325 18.4092 16.6652 20 16.667ZM20 6.00033C20.923 6.00033 21.8252 6.27402 22.5927 6.7868C23.3601 7.29958 23.9582 8.02842 24.3114 8.88114C24.6646 9.73386 24.7571 10.6722 24.577 11.5774C24.3969 12.4827 23.9525 13.3142 23.2998 13.9668C22.6472 14.6195 21.8157 15.0639 20.9104 15.244C20.0052 15.4241 19.0669 15.3316 18.2141 14.9784C17.3614 14.6252 16.6326 14.0271 16.1198 13.2597C15.607 12.4922 15.3333 11.59 15.3333 10.667C15.3347 9.42975 15.8269 8.24359 16.7017 7.36872C17.5766 6.49386 18.7628 6.00174 20 6.00033Z" fill="#384BFF"/>
<path d="M20.0003 13.9997C20.6596 13.9997 21.3041 13.8042 21.8522 13.4379C22.4004 13.0716 22.8276 12.551 23.0799 11.942C23.3322 11.3329 23.3982 10.6626 23.2696 10.016C23.141 9.36944 22.8235 8.7755 22.3573 8.30932C21.8912 7.84315 21.2972 7.52568 20.6506 7.39706C20.004 7.26844 19.3338 7.33445 18.7247 7.58674C18.1156 7.83904 17.595 8.26628 17.2288 8.81444C16.8625 9.36261 16.667 10.0071 16.667 10.6663C16.6681 11.5501 17.0196 12.3973 17.6445 13.0222C18.2694 13.6471 19.1166 13.9986 20.0003 13.9997ZM20.0003 8.66634C20.3959 8.66634 20.7826 8.78364 21.1115 9.0034C21.4404 9.22317 21.6967 9.53552 21.8481 9.90098C21.9995 10.2664 22.0391 10.6686 21.9619 11.0565C21.8847 11.4445 21.6942 11.8009 21.4145 12.0806C21.1348 12.3603 20.7785 12.5507 20.3905 12.6279C20.0025 12.7051 19.6004 12.6655 19.235 12.5141C18.8695 12.3627 18.5571 12.1064 18.3374 11.7775C18.1176 11.4486 18.0003 11.0619 18.0003 10.6663C18.0003 10.1359 18.211 9.6272 18.5861 9.25213C18.9612 8.87706 19.4699 8.66634 20.0003 8.66634Z" fill="#384BFF"/>
<path d="M40.0001 25.3334C39.9993 25.0563 39.9118 24.7863 39.75 24.5613C39.5881 24.3364 39.36 24.1676 39.0974 24.0788L32.3528 21.6668L39.0981 19.2541C39.3609 19.166 39.5894 18.9975 39.7512 18.7725C39.9131 18.5475 40.0001 18.2773 40.0001 18.0001C40.0001 17.7229 39.9131 17.4528 39.7512 17.2277C39.5894 17.0027 39.3609 16.8343 39.0981 16.7461L28.6314 12.9994C28.6494 12.9328 28.6721 12.8661 28.6881 12.7994L29.9194 12.4228C30.1117 12.3652 30.2822 12.2514 30.4092 12.096C30.5361 11.9405 30.6135 11.7506 30.6314 11.5508C30.6581 11.2594 30.6708 10.9641 30.6708 10.6668C30.6708 10.3694 30.6581 10.0741 30.6314 9.78277C30.6134 9.58278 30.5359 9.39276 30.4088 9.23723C30.2818 9.08169 30.1111 8.96776 29.9188 8.91011L28.6841 8.53344C28.4691 7.6524 28.1195 6.80981 27.6474 6.03544L28.2521 4.90211C28.348 4.72527 28.3885 4.52373 28.3686 4.32357C28.3486 4.12341 28.269 3.93386 28.1401 3.77944C27.9525 3.555 27.7526 3.33766 27.5401 3.12744C27.3277 2.91722 27.1101 2.71722 26.8874 2.52744C26.7331 2.39911 26.544 2.31988 26.3442 2.29992C26.1445 2.27996 25.9434 2.32019 25.7668 2.41544L24.6281 3.02077C23.8547 2.54872 23.0133 2.19841 22.1334 1.98211L21.7574 0.750774C21.6991 0.558758 21.5848 0.38848 21.4293 0.261668C21.2737 0.134855 21.0839 0.0572572 20.8841 0.0387742C20.296 -0.0142268 19.7042 -0.0142268 19.1161 0.0387742C18.9162 0.0570848 18.7263 0.134711 18.5708 0.261692C18.4153 0.388673 18.3013 0.559217 18.2434 0.751441L17.8668 1.98211C16.986 2.19773 16.1437 2.5476 15.3694 3.01944L14.2321 2.41477C14.055 2.3193 13.8534 2.27901 13.6532 2.29909C13.453 2.31917 13.2634 2.3987 13.1088 2.52744C12.8848 2.71411 12.6674 2.91411 12.4574 3.12744C12.2474 3.34077 12.0468 3.55477 11.8574 3.77877C11.7285 3.93299 11.6487 4.12235 11.6285 4.32237C11.6083 4.5224 11.6486 4.72388 11.7441 4.90077L12.3494 6.03877C11.8794 6.81255 11.5308 7.6539 11.3161 8.53344L10.0848 8.91011C9.89254 8.96766 9.72197 9.0815 9.59506 9.23693C9.46815 9.39236 9.39072 9.58225 9.37277 9.78211C9.3461 10.0734 9.33344 10.3688 9.33344 10.6661C9.33344 10.9634 9.3461 11.2588 9.37277 11.5488C9.39065 11.749 9.4681 11.9392 9.59512 12.095C9.72215 12.2508 9.89293 12.365 10.0854 12.4228L11.3161 12.7988C11.3321 12.8654 11.3548 12.9321 11.3728 12.9988L0.902104 16.7461C0.639316 16.8343 0.41086 17.0027 0.249004 17.2277C0.0871471 17.4528 6.95685e-05 17.7229 6.95685e-05 18.0001C6.95685e-05 18.2773 0.0871471 18.5475 0.249004 18.7725C0.41086 18.9975 0.639316 19.166 0.902104 19.2541L7.64744 21.6668L0.902104 24.0788C0.639159 24.167 0.410562 24.3355 0.248603 24.5606C0.0866449 24.7858 -0.000488281 25.0561 -0.000488281 25.3334C-0.000488281 25.6108 0.0866449 25.8811 0.248603 26.1062C0.410562 26.3314 0.639159 26.4999 0.902104 26.5881L6.71477 28.6668L0.902104 30.7461C0.639159 30.8343 0.410562 31.0028 0.248603 31.228C0.0866449 31.4531 -0.000488281 31.7234 -0.000488281 32.0008C-0.000488281 32.2781 0.0866449 32.5484 0.248603 32.7736C0.410562 32.9987 0.639159 33.1673 0.902104 33.2554L19.5208 39.9161C19.8298 40.0281 20.1684 40.0281 20.4774 39.9161L39.0974 33.2554C39.3604 33.1673 39.589 32.9987 39.7509 32.7736C39.9129 32.5484 40 32.2781 40 32.0008C40 31.7234 39.9129 31.4531 39.7509 31.228C39.589 31.0028 39.3604 30.8343 39.0974 30.7461L33.2861 28.6668L39.0981 26.5881C39.3605 26.4991 39.5885 26.3304 39.7503 26.1054C39.912 25.8804 39.9993 25.6105 40.0001 25.3334ZM10.6834 11.2114C10.6606 10.8487 10.6606 10.4849 10.6834 10.1221L12.0768 9.69611C12.1922 9.661 12.296 9.59521 12.377 9.50574C12.4581 9.41628 12.5133 9.30649 12.5368 9.18811C12.7305 8.20464 13.1185 7.26971 13.6781 6.43811C13.7453 6.33782 13.7841 6.22116 13.7902 6.10057C13.7963 5.97999 13.7695 5.86001 13.7128 5.75344L13.0268 4.46677C13.1468 4.33344 13.2708 4.20011 13.4008 4.07011C13.5308 3.94011 13.6621 3.81544 13.8008 3.69611L15.0908 4.38211C15.1974 4.43877 15.3174 4.46542 15.438 4.4592C15.5586 4.45297 15.6752 4.41412 15.7754 4.34677C16.6054 3.78613 17.5386 3.39634 18.5208 3.20011C18.639 3.17671 18.7487 3.12171 18.8381 3.04094C18.9276 2.96018 18.9935 2.85667 19.0288 2.74144L19.4554 1.34744C19.8182 1.32477 20.182 1.32477 20.5448 1.34744L20.9714 2.74144C21.0067 2.85667 21.0726 2.96018 21.1621 3.04094C21.2515 3.12171 21.3612 3.17671 21.4794 3.20011C22.4625 3.39382 23.397 3.78185 24.2281 4.34144C24.3283 4.40878 24.445 4.44764 24.5655 4.45386C24.6861 4.46008 24.8061 4.43344 24.9128 4.37677L26.2001 3.69344C26.3334 3.81277 26.4668 3.93811 26.5968 4.06744C26.7268 4.19677 26.8508 4.32877 26.9708 4.46411L26.2874 5.75344C26.2305 5.86009 26.2037 5.98019 26.2098 6.10091C26.2159 6.22163 26.2547 6.33841 26.3221 6.43878C26.8831 7.26976 27.2723 8.20452 27.4668 9.18811C27.4903 9.30649 27.5455 9.41628 27.6265 9.50574C27.7075 9.59521 27.8113 9.661 27.9268 9.69611L29.3201 10.1221C29.3429 10.4849 29.3429 10.8487 29.3201 11.2114L27.9268 11.6374C27.8113 11.6725 27.7075 11.7383 27.6265 11.8278C27.5455 11.9173 27.4903 12.0271 27.4668 12.1454C27.2731 13.1289 26.885 14.0638 26.3254 14.8954C26.2582 14.9957 26.2195 15.1124 26.2134 15.233C26.2073 15.3536 26.234 15.4735 26.2908 15.5801L26.9734 16.8668C26.8534 17.0001 26.7294 17.1334 26.5994 17.2668C26.4694 17.4001 26.3381 17.5214 26.2028 17.6408L24.9128 16.9548C24.8061 16.8981 24.6861 16.8715 24.5655 16.8777C24.445 16.8839 24.3283 16.9228 24.2281 16.9901C23.3971 17.5504 22.4626 17.9391 21.4794 18.1334C21.3612 18.1568 21.2515 18.2118 21.1621 18.2926C21.0726 18.3734 21.0067 18.4769 20.9714 18.5921L20.5448 19.9861C20.182 20.0088 19.8182 20.0088 19.4554 19.9861L19.0288 18.5921C18.9935 18.4769 18.9276 18.3734 18.8381 18.2926C18.7487 18.2118 18.639 18.1568 18.5208 18.1334C17.5374 17.9397 16.6027 17.5514 15.7714 16.9914C15.6712 16.9242 15.5545 16.8855 15.4339 16.8794C15.3133 16.8733 15.1933 16.9 15.0868 16.9568L13.8001 17.6394C13.6668 17.5208 13.5334 17.3954 13.4001 17.2661C13.2668 17.1368 13.1461 17.0048 13.0261 16.8661L13.7121 15.5768C13.769 15.4701 13.7958 15.35 13.7897 15.2293C13.7836 15.1086 13.7448 14.9918 13.6774 14.8914C13.1176 14.0602 12.7296 13.1254 12.5361 12.1421C12.5126 12.0237 12.4574 11.9139 12.3764 11.8245C12.2954 11.735 12.1916 11.6692 12.0761 11.6341L10.6834 11.2114ZM11.8168 14.2568C11.9729 14.615 12.1524 14.9627 12.3541 15.2974L11.7494 16.4308C11.6536 16.6076 11.613 16.8092 11.633 17.0093C11.6529 17.2095 11.7325 17.399 11.8614 17.5534C12.049 17.7779 12.249 17.9952 12.4614 18.2054C12.6739 18.4157 12.8914 18.6157 13.1141 18.8054C13.2685 18.9335 13.4577 19.0126 13.6573 19.0326C13.857 19.0525 14.058 19.0124 14.2348 18.9174L15.3728 18.3121C16.146 18.7842 16.9871 19.1347 17.8668 19.3514L18.2428 20.5828C18.3009 20.7748 18.415 20.945 18.5705 21.0717C18.7259 21.1985 18.9157 21.2759 19.1154 21.2941C19.4068 21.3208 19.7021 21.3334 19.9994 21.3334C20.2968 21.3334 20.5921 21.3208 20.8834 21.2941C21.0834 21.2759 21.2733 21.1983 21.4288 21.0713C21.5843 20.9443 21.6983 20.7737 21.7561 20.5814L22.1321 19.3514C23.0128 19.1358 23.8551 18.7859 24.6294 18.3141L25.7668 18.9188C25.9438 19.0144 26.1455 19.0548 26.3457 19.0347C26.546 19.0147 26.7356 18.935 26.8901 18.8061C27.1141 18.6194 27.3314 18.4194 27.5414 18.2061C27.7514 17.9928 27.9521 17.7788 28.1414 17.5548C28.2704 17.4006 28.3502 17.2112 28.3704 17.0112C28.3906 16.8112 28.3503 16.6097 28.2548 16.4328L27.6494 15.2948C27.8509 14.96 28.0302 14.6124 28.1861 14.2541L38.6488 18.0001L19.9714 24.6588L1.35144 18.0001L11.8168 14.2568ZM38.6488 32.0001L19.9714 38.6608L1.35144 32.0001L8.69344 29.3734L19.5214 33.2461C19.8305 33.3581 20.169 33.3581 20.4781 33.2461L31.3068 29.3748L38.6488 32.0001ZM19.9714 31.9921L1.35144 25.3334L9.62677 22.3748L19.5214 25.9141C19.8305 26.0261 20.169 26.0261 20.4781 25.9141L30.3734 22.3748L38.6488 25.3334L19.9714 31.9921Z" fill="#384BFF"/>
<path d="M18.2336 28.7059L10.7782 26.0392C10.6134 25.9859 10.4343 25.9988 10.2788 26.0752C10.1233 26.1517 10.0037 26.2856 9.94529 26.4487C9.88687 26.6118 9.89425 26.7913 9.96586 26.949C10.0375 27.1068 10.1677 27.2305 10.3289 27.2939L17.7842 29.9606C17.8563 29.9866 17.9323 29.9999 18.0089 29.9999C18.1658 29.9997 18.3176 29.9442 18.4375 29.8431C18.5575 29.742 18.638 29.6018 18.6648 29.4473C18.6916 29.2927 18.6631 29.1336 18.5842 28.998C18.5054 28.8624 18.3812 28.759 18.2336 28.7059ZM18.2336 35.3726L10.7782 32.7059C10.6134 32.6526 10.4343 32.6655 10.2788 32.7419C10.1233 32.8183 10.0037 32.9523 9.94529 33.1154C9.88687 33.2785 9.89425 33.4579 9.96586 33.6157C10.0375 33.7735 10.1677 33.8972 10.3289 33.9606L17.7842 36.6272C17.8563 36.6533 17.9323 36.6666 18.0089 36.6666C18.1658 36.6664 18.3176 36.6108 18.4375 36.5097C18.5575 36.4087 18.638 36.2685 18.6648 36.114C18.6916 35.9594 18.6631 35.8003 18.5842 35.6647C18.5054 35.5291 18.3812 35.4257 18.2336 35.3726Z" fill="#384BFF"/>
</g>
<defs>
<clipPath id="clip0_7517_368">
<rect width="40" height="40" fill="white"/>
</clipPath>
</defs>
</svg>
