<svg width="40" height="40" viewBox="0 0 40 40" fill="none" xmlns="http://www.w3.org/2000/svg">
<g clip-path="url(#clip0_7448_341)">
<path d="M16.6754 2.6748C8.94629 2.6748 2.68066 8.94043 2.68066 16.6695C2.68066 24.3986 8.94629 30.6642 16.6754 30.6642C24.4044 30.6642 30.67 24.3986 30.67 16.6695C30.6616 8.94393 24.4009 2.68322 16.6754 2.6748ZM16.6754 4.00763C18.7038 4.00923 20.7021 4.49867 22.5017 5.43466C24.3014 6.37065 25.8495 7.72573 27.0154 9.38559L25.3494 11.0516C24.944 10.8063 24.4798 10.675 24.0059 10.6718C22.5337 10.6718 21.3403 11.8652 21.3403 13.3374C21.3426 13.8118 21.4731 14.2767 21.7181 14.6829L17.3544 19.0466C16.9491 18.7995 16.4836 18.6687 16.0089 18.6687C15.5343 18.6687 15.0687 18.7995 14.6635 19.0466L11.6326 16.0157C11.8776 15.6095 12.0082 15.1446 12.0105 14.6703C12.0123 13.201 10.8227 12.0084 9.35347 12.0066C8.13834 12.0051 7.07666 12.827 6.77378 14.0038H4.30138C5.56315 8.17713 10.7136 4.01638 16.6754 4.00763ZM25.3387 13.3374C25.3387 14.0736 24.742 14.6703 24.0059 14.6703C23.2698 14.6703 22.6731 14.0736 22.6731 13.3374C22.6731 12.6013 23.2698 12.0046 24.0059 12.0046C24.742 12.0046 25.3387 12.6013 25.3387 13.3374ZM17.3418 21.3344C17.3418 22.0705 16.7451 22.6672 16.0089 22.6672C15.2728 22.6672 14.6761 22.0705 14.6761 21.3344C14.6761 20.5983 15.2728 20.0016 16.0089 20.0016C16.7451 20.0016 17.3418 20.5983 17.3418 21.3344ZM10.6776 14.6703C10.6776 15.4064 10.0809 16.0031 9.3448 16.0031C8.60867 16.0031 8.01198 15.4064 8.01198 14.6703C8.01198 13.9341 8.60867 13.3374 9.3448 13.3374C10.0809 13.3374 10.6776 13.9341 10.6776 14.6703ZM22.8275 27.7408C20.9455 28.7858 18.828 29.3332 16.6754 29.3313C9.68717 29.336 4.01824 23.6749 4.01349 16.6867C4.01316 16.2357 4.03698 15.785 4.0848 15.3366H6.77378C7.07675 16.5099 8.13301 17.3312 9.3448 17.3358C9.81917 17.3335 10.2841 17.203 10.6903 16.958L13.7211 19.9888C13.4762 20.395 13.3456 20.8599 13.3433 21.3343C13.3433 22.8065 14.5368 24 16.0089 24C17.4811 24 18.6746 22.8065 18.6746 21.3343C18.6723 20.8599 18.5417 20.395 18.2967 19.9888L22.6604 15.6251C23.0666 15.8701 23.5315 16.0007 24.0059 16.003C25.4781 16.003 26.6716 14.8095 26.6716 13.3373C26.6693 12.863 26.5387 12.3981 26.2937 11.9919L27.7465 10.5397C31.1381 16.6481 28.9358 24.3493 22.8275 27.7408Z" fill="#384BFF"/>
<path d="M33.3358 6.67312C34.5476 6.66854 35.6039 5.84726 35.9069 4.67387H40V3.34105H35.9069C35.6039 2.16766 34.5476 1.34639 33.3358 1.3418C31.8636 1.3418 30.6702 2.53527 30.6702 4.00746C30.6725 4.48183 30.803 4.94674 31.048 5.35295L29.8771 6.52384C24.2747 -0.775143 13.816 -2.15045 6.517 3.452C-0.781979 9.05446 -2.15729 19.5133 3.44517 26.8122C8.7335 33.7019 18.4274 35.3732 25.7174 30.652L27.7286 32.6633L28.6709 33.6056L34.0356 38.9702C35.4 40.3346 37.612 40.3346 38.9764 38.9702C40.3408 37.6058 40.3408 35.3938 38.9764 34.0294L33.6117 28.6648L32.6694 27.7225L30.6582 25.7112C34.2284 20.212 34.2284 13.1268 30.6582 7.62742L31.991 6.29459C32.397 6.53967 32.8616 6.67045 33.3358 6.67312ZM33.3358 2.67463C34.072 2.67463 34.6687 3.27132 34.6687 4.00746C34.6687 4.7436 34.072 5.34029 33.3358 5.34029C32.5997 5.34029 32.003 4.7436 32.003 4.00746C32.003 3.27132 32.5998 2.67463 33.3358 2.67463ZM38.0341 34.9717C38.8876 35.8061 38.9031 37.1744 38.0688 38.0279C37.2344 38.8814 35.8661 38.897 35.0126 38.0626C35.0009 38.0512 34.9893 38.0396 34.9779 38.0279L29.6132 32.6633L32.6694 29.6071L38.0341 34.9717ZM31.7271 28.6648L28.6709 31.721L26.8263 29.8763C26.9203 29.8043 27.0082 29.725 27.1009 29.6511C27.1935 29.5771 27.3008 29.4885 27.4001 29.4052C27.546 29.2825 27.69 29.1586 27.8313 29.0313C27.9039 28.9647 27.9732 28.898 28.0445 28.8314C28.3177 28.5756 28.5824 28.3108 28.8382 28.0377C28.9048 27.9664 28.9715 27.8971 29.0381 27.8244C29.1652 27.6829 29.2899 27.5391 29.412 27.3933C29.4954 27.2948 29.5774 27.195 29.6579 27.094C29.7312 27.0021 29.8105 26.9141 29.8825 26.8201L31.7271 28.6648ZM29.1428 25.5693C28.9328 25.8625 28.7163 26.1497 28.4877 26.4263C28.421 26.5069 28.3497 26.5849 28.2811 26.6642C28.0777 26.9008 27.867 27.1311 27.6493 27.3546C27.5547 27.4523 27.4585 27.5485 27.3608 27.6432C27.1377 27.8613 26.9074 28.072 26.6704 28.2749C26.5911 28.3416 26.5131 28.4142 26.4325 28.4815C26.1559 28.7101 25.8687 28.9267 25.5754 29.1366C18.6767 34.0651 9.08878 32.468 4.16023 25.5693C-0.768317 18.6706 0.828827 9.08262 7.72754 4.15407C14.6263 -0.774477 24.2142 0.822585 29.1428 7.72139C32.9564 13.0595 32.9564 20.2311 29.1428 25.5693Z" fill="#384BFF"/>
</g>
<defs>
<clipPath id="clip0_7448_341">
<rect width="40" height="40" fill="white"/>
</clipPath>
</defs>
</svg>
