<svg width="11" height="10" viewBox="0 0 11 10" fill="none" xmlns="http://www.w3.org/2000/svg">
<g clip-path="url(#clip0_7561_255)">
<path d="M10.4366 3.70891C10.3631 3.49031 10.1739 3.33094 9.94609 3.29609L7.29468 2.89094L6.10374 0.353906C6.00218 0.137656 5.78515 0 5.54671 0C5.30812 0 5.09124 0.137656 4.98968 0.353906L3.79859 2.89109L1.14718 3.29625C0.919369 3.33109 0.73015 3.49031 0.656869 3.70906C0.583588 3.92781 0.6389 4.16875 0.799994 4.33406L2.73624 6.31953L2.27765 9.12844C2.23984 9.36094 2.33843 9.59469 2.53078 9.73063C2.72296 9.86656 2.97671 9.88031 3.18343 9.76625L5.54687 8.45922L7.91031 9.76625C8.00359 9.81781 8.10624 9.84312 8.20843 9.84312C8.33281 9.84312 8.45718 9.80531 8.56296 9.73063C8.75531 9.59484 8.85374 9.36109 8.81593 9.12844L8.35734 6.31953L10.2937 4.33406C10.4545 4.16875 10.5098 3.92781 10.4366 3.70891Z" fill="#FBB03B"/>
</g>
<defs>
<clipPath id="clip0_7561_255">
<rect width="10" height="10" fill="white" transform="translate(0.625)"/>
</clipPath>
</defs>
</svg>
