<svg width="74" height="74" viewBox="0 0 74 74" fill="none" xmlns="http://www.w3.org/2000/svg">
<path d="M23.7982 1.00003C21.7086 0.994723 19.6647 1.82204 17.9251 3.37735C16.1854 4.93266 14.8282 7.14612 14.0248 9.73781C13.2215 12.3295 13.0082 15.183 13.412 17.9375C13.8158 20.6921 14.8186 23.2239 16.2934 25.2128C17.7682 27.2017 19.6489 28.5583 21.6976 29.1113C23.7463 29.6642 25.8709 29.3885 27.803 28.319C29.735 27.2496 31.3877 25.4344 32.5519 23.1031C33.7161 20.7717 34.3396 18.0289 34.3436 15.2215C34.3436 11.459 33.2338 7.84982 31.2573 5.18432C29.2808 2.51882 26.5987 1.01422 23.7982 1.00003ZM50.2415 1.00003C44.4496 1.00003 39.656 7.43993 39.656 15.2215C39.656 23.003 44.4496 29.3356 50.2415 29.3356C53.0383 29.3356 55.7206 27.8429 57.6982 25.186C59.6758 22.529 60.7869 18.9254 60.7869 15.1678C60.7869 11.4103 59.6758 7.80665 57.6982 5.14968C55.7206 2.4927 53.0383 1.00003 50.2415 1.00003ZM50.4012 36.4195C44.5749 36.4028 38.8251 38.2031 33.6045 41.6788C31.2841 43.5368 29.3976 46.231 28.1586 49.4559C26.9196 52.6809 26.3776 56.3076 26.5943 59.9252C26.6542 66.5261 30.309 72 34.8427 72H65.6799C70.2336 72 73.9884 66.4992 73.9884 59.8178V59.791C74.0388 55.844 73.2573 51.9583 71.7341 48.5825C70.211 45.2067 68.0083 42.4785 65.3804 40.7128C60.627 37.7075 55.5541 36.8757 50.4012 36.4195ZM23.6184 36.5537C14.0118 36.6342 7.68052 41.3299 6.86165 41.9203C2.12824 45.1402 -0.308272 52.5193 0.0312552 59.8178C0.0911719 66.1504 3.70627 71.6512 8.39974 71.6512H24.2974C22.4873 68.2962 21.4777 64.2823 21.4017 60.1398C21.1707 55.7349 21.7555 51.3217 23.1043 47.2947C24.4531 43.2678 26.5237 39.7527 29.1308 37.0635C27.3052 36.7112 25.4627 36.5408 23.6184 36.5537Z" fill="url(#paint0_linear_7561_404)"/>
<defs>
<linearGradient id="paint0_linear_7561_404" x1="0.0112807" y1="0.973195" x2="87.1143" y2="47.287" gradientUnits="userSpaceOnUse">
<stop stop-color="#00D7FF"/>
<stop offset="1" stop-color="#0096FF"/>
</linearGradient>
</defs>
</svg>
