<svg width="74" height="74" viewBox="0 0 74 74" fill="none" xmlns="http://www.w3.org/2000/svg">
<path fill-rule="evenodd" clip-rule="evenodd" d="M50.5486 17.8771V4.69046C50.5486 4.41157 50.6594 4.14411 50.8566 3.9469C51.0538 3.74969 51.3213 3.63889 51.6002 3.63885H62.9443C63.2232 3.63889 63.4906 3.74969 63.6878 3.9469C63.8851 4.14411 63.9959 4.41157 63.9959 4.69046V17.8771L68.6163 17.8791C68.8135 17.8797 69.0065 17.9357 69.1734 18.0408C69.3402 18.1459 69.4742 18.2958 69.5599 18.4734C69.6456 18.651 69.6796 18.8492 69.658 19.0452C69.6365 19.2412 69.5602 19.4272 69.4379 19.5819L58.1051 33.806C58.0079 33.9324 57.8833 34.0351 57.7406 34.1062C57.5979 34.1773 57.4408 34.215 57.2814 34.2164C57.1219 34.2178 56.9643 34.1828 56.8203 34.1142C56.6764 34.0456 56.55 33.9452 56.4506 33.8204L45.1483 19.634C45.0126 19.4828 44.9235 19.2955 44.8918 19.0948C44.8601 18.8942 44.8872 18.6886 44.9697 18.5029C45.0522 18.3172 45.1866 18.1594 45.3568 18.0484C45.5269 17.9374 45.7256 17.878 45.9288 17.8773L50.5486 17.8771ZM41.6743 20.2474C42.7863 18.4879 43.7397 16.6331 44.5233 14.7049C45.0147 13.4921 47.502 7.3137 45.631 6.63556C44.7507 6.31427 43.7462 5.63251 42.7419 4.9509C41.1309 3.85781 39.52 2.76444 37.8983 2.72267C36.1968 2.67931 34.902 3.74262 33.6076 4.80623C32.6151 5.62167 31.6226 6.43697 30.6972 6.41327C29.6918 6.3874 28.3354 5.46674 26.979 4.54622C25.368 3.45284 23.7569 2.35946 22.1352 2.31769C20.4337 2.27433 19.139 3.3375 17.8446 4.40096C16.9427 5.14183 14.0523 6.18722 14.0556 7.05716C14.0687 9.27094 14.6859 11.7579 15.7022 14.2354C16.5711 16.3247 17.6469 18.3217 18.9136 20.1966C18.2186 20.3429 17.5805 20.686 17.0753 21.1851C16.5702 21.6843 16.2194 22.3182 16.0648 23.0114C15.9102 23.7045 15.9584 24.4274 16.2037 25.0939C16.4489 25.7604 16.8808 26.3421 17.4477 26.7698C12.8263 31.6838 8.61109 38.4216 6.27156 44.9291C4.02843 51.1685 3.49916 57.249 5.93032 61.4597C7.33357 63.8902 9.52568 65.8846 12.2284 67.4452C17.1136 70.2663 23.7106 71.68 30.2915 71.6836C36.8724 71.6872 43.4704 70.2783 48.3611 67.4547C51.0651 65.8938 53.2594 63.8964 54.6664 61.4597C56.8662 57.6497 56.272 51.2641 53.9437 44.6093C51.6863 38.158 47.7932 31.3813 43.2672 26.4816C43.7382 26.028 44.0805 25.4576 44.2593 24.8287C44.4381 24.1997 44.4471 23.5346 44.2853 22.901C44.1234 22.2675 43.7966 21.6882 43.338 21.222C42.8795 20.7559 42.3056 20.4196 41.6748 20.2474H41.6743Z" fill="url(#paint0_linear_7516_350)"/>
<path fill-rule="evenodd" clip-rule="evenodd" d="M38.1592 38.7105C36.1763 36.7275 33.5671 35.4935 30.7763 35.2186C27.9854 34.9437 25.1856 35.6449 22.8539 37.2029C20.5222 38.7609 18.8028 41.0792 17.9887 43.7628C17.1747 46.4464 17.3163 49.3292 18.3895 51.9201C19.4627 54.5109 21.401 56.6495 23.8742 57.9715C26.3474 59.2934 29.2025 59.7169 31.9529 59.1698C34.7034 58.6226 37.179 57.1388 38.958 54.971C40.737 52.8032 41.7094 50.0856 41.7093 47.2812C41.7114 45.6892 41.3988 44.1124 40.7896 42.6416C40.1803 41.1707 39.2864 39.8348 38.1592 38.7105ZM33.9805 44.2089C33.9805 44.4878 33.8697 44.7553 33.6725 44.9525C33.4753 45.1497 33.2078 45.2605 32.9289 45.2605C32.65 45.2605 32.3825 45.1497 32.1853 44.9525C31.9881 44.7553 31.8773 44.4878 31.8773 44.2089C31.887 43.8084 31.7674 43.4153 31.536 43.0882C31.3047 42.761 30.974 42.5172 30.5931 42.3929C29.943 42.1626 29.2334 42.1626 28.5833 42.3929C28.2024 42.5172 27.8717 42.761 27.6404 43.0882C27.409 43.4153 27.2894 43.8084 27.2991 44.2089C27.2991 45.6986 28.551 45.9722 29.8043 46.2452C31.8912 46.7005 33.9805 47.1565 33.9805 50.3541C33.9805 52.3281 32.812 53.5906 31.3161 54.142C31.0956 54.2231 30.8696 54.2881 30.6398 54.3365V55.2904C30.6398 55.5693 30.529 55.8368 30.3318 56.034C30.1346 56.2312 29.8671 56.342 29.5882 56.342C29.3093 56.342 29.0418 56.2312 28.8446 56.034C28.6474 55.8368 28.5366 55.5693 28.5366 55.2904V54.3365C28.3068 54.2881 28.0808 54.2231 27.8603 54.142C26.3644 53.5906 25.1959 52.3281 25.1959 50.3541C25.1959 50.0752 25.3067 49.8077 25.5039 49.6105C25.7011 49.4133 25.9686 49.3025 26.2475 49.3025C26.5264 49.3025 26.7939 49.4133 26.9911 49.6105C27.1883 49.8077 27.2991 50.0752 27.2991 50.3541C27.2893 50.7547 27.409 51.1477 27.6403 51.4749C27.8717 51.802 28.2024 52.0458 28.5833 52.1701C29.2334 52.4004 29.943 52.4004 30.5931 52.1701C30.9741 52.0458 31.3047 51.802 31.5361 51.4749C31.7674 51.1477 31.8871 50.7547 31.8773 50.3541C31.8773 48.8484 30.6181 48.5736 29.3607 48.2993C27.2771 47.8446 25.1959 47.3905 25.1959 44.2091C25.1959 42.2351 26.3644 40.9726 27.8603 40.4212C28.0808 40.3401 28.3068 40.2751 28.5366 40.2267V39.2728C28.5366 38.9938 28.6474 38.7264 28.8446 38.5291C29.0418 38.3319 29.3093 38.2211 29.5882 38.2211C29.8671 38.2211 30.1346 38.3319 30.3318 38.5291C30.529 38.7264 30.6398 38.9938 30.6398 39.2728V40.2267C30.8696 40.2751 31.0956 40.3401 31.3161 40.4212C32.8118 40.9724 33.9805 42.2349 33.9805 44.2089Z" fill="white"/>
<defs>
<linearGradient id="paint0_linear_7516_350" x1="36.9987" y1="2.31641" x2="36.9987" y2="71.6836" gradientUnits="userSpaceOnUse">
<stop stop-color="#54B9F3"/>
<stop offset="1" stop-color="#0D73E1"/>
</linearGradient>
</defs>
</svg>
