<svg width="74" height="74" viewBox="0 0 74 74" fill="none" xmlns="http://www.w3.org/2000/svg">
<path d="M70.2308 9.34282L67.2592 26.8831C67.1899 27.2994 66.8314 27.6 66.4036 27.6H44.7355C43.9076 27.6335 43.555 26.4599 44.2383 26.0275L49.3142 22.4894C44.9552 20.2809 29.6464 14.1297 16.338 28.4325C2.03517 43.7991 15.968 66.9009 16.1067 67.1322C16.6109 67.93 15.5864 68.8515 14.8464 68.2884C8.24423 63.3744 3.79267 53.0491 3.75798 42.5966C3.7233 31.0803 8.98423 20.7434 18.5811 13.4938C39.1855 -2.04624 60.4142 9.74751 63.9639 11.9213L68.878 8.4872C69.167 8.27907 69.5486 8.26751 69.8377 8.46407C70.1383 8.64907 70.2886 8.99595 70.2308 9.34282ZM39.1855 56.0669H30.7217L38.5611 47.6378C41.1742 44.8397 42.0299 40.8275 40.7349 37.4281C39.9486 35.1191 37.4569 32.277 32.4677 32.3638C22.1192 32.3638 21.3099 42.4231 21.2983 42.5272C21.2924 42.6454 21.3103 42.7635 21.3511 42.8746C21.3918 42.9857 21.4546 43.0875 21.5355 43.1738C21.6164 43.2602 21.7139 43.3293 21.8222 43.3771C21.9304 43.4249 22.0472 43.4505 22.1655 43.4522H27.912C28.3167 43.4522 28.6752 43.1631 28.7561 42.7584C28.7677 42.7238 29.5539 39.1972 31.9358 39.0353C34.8426 39.1775 33.7234 43.6719 31.2767 45.8919C27.5571 49.6636 19.1014 56.7144 19.1824 57.3272L18.7083 62.0216C18.6852 62.2644 18.7661 62.5072 18.928 62.6922C19.0899 62.8656 19.3211 62.9697 19.5755 62.9697H38.3645C38.7924 62.9697 39.1624 62.6691 39.2202 62.2413L40.0411 57.0728C40.1463 56.5629 39.7058 56.0507 39.1855 56.0669ZM61.8827 32.2481L59.0499 48.69H61.027C61.5543 48.6761 61.989 49.2115 61.8827 49.7306L60.923 54.4944C60.8828 54.6912 60.7755 54.868 60.6195 54.9946C60.4634 55.1211 60.2683 55.1895 60.0674 55.1881H57.7895L57.1767 62.1834C57.1565 62.3991 57.0563 62.5994 56.8958 62.745C56.7353 62.8905 56.5262 62.9706 56.3095 62.9697H49.7536C49.6303 62.971 49.5082 62.9458 49.3954 62.896C49.2826 62.8462 49.1817 62.7729 49.0996 62.6809C49.0175 62.5889 48.9559 62.4804 48.9192 62.3627C48.8824 62.245 48.8712 62.1208 48.8864 61.9984L49.7883 55.2113L40.5152 55.1881C40.0411 55.1881 39.648 54.795 39.648 54.3209V50.3203C39.648 50.1238 39.7174 49.9388 39.833 49.7884L53.7774 31.5775C53.9392 31.3578 54.1936 31.2422 54.4595 31.2422H61.027C61.2814 31.2422 61.5242 31.3463 61.6861 31.5428C61.8595 31.7394 61.9289 32.0053 61.8827 32.2481ZM47.1405 49.2334H51.7424L53.0027 41.3825L47.1405 49.2334Z" fill="url(#paint0_linear_7513_338)"/>
<defs>
<linearGradient id="paint0_linear_7513_338" x1="3.75798" y1="37.0269" x2="70.2435" y2="37.0269" gradientUnits="userSpaceOnUse">
<stop stop-color="#096FE0"/>
<stop offset="0.158" stop-color="#167CE3"/>
<stop offset="1" stop-color="#5EC3F6"/>
</linearGradient>
</defs>
</svg>
