<svg xmlns="http://www.w3.org/2000/svg" width="40" height="40" fill="none"><g fill="#384BFF" clip-path="url(#a)"><path d="M1.539 8.31a9.3 9.3 0 0 1 .156-2.694c.244-1.104.725-2.02 1.427-2.722.985-.985 2.37-1.525 4.11-1.605.843-.032 1.687.026 2.518.171L9.972.202a13.2 13.2 0 0 0-2.793-.19c-2.075.096-3.744.761-4.96 1.979C1.341 2.869.744 3.997.446 5.344l-.001.008c-.21 1.01-.27 2.044-.179 3.07zM4.34 16.66a30 30 0 0 1-1.05-2.098l-1.164.525c.325.72.693 1.456 1.093 2.187zm-3.703-5.88q.24 1.027.583 2.026l1.209-.413a20 20 0 0 1-.548-1.901zM9.33 23.695l-.167-.19-.964.837.17.196a48 48 0 0 0 1.468 1.596l.921-.886a47 47 0 0 1-1.428-1.553m-2.675-1.23 1.009-.784-.276-.36a41 41 0 0 1-1.118-1.543l-1.052.725a43 43 0 0 0 1.437 1.962m4.27 4.762a47 47 0 0 0 3.804 3.33 39 39 0 0 0 5.743 3.752 28.5 28.5 0 0 0 3.66 1.629l-1.166.334.351 1.228 3.267-.935a.64.64 0 0 0 .438-.79L26.17 32.8l-1.229.351.541 1.89a26 26 0 0 1-4.412-1.86 37.7 37.7 0 0 1-5.553-3.63 45 45 0 0 1-3.702-3.238zm26.172.21c-.26-1.63-.8-3.383-1.602-5.211l-1.17.513c.759 1.729 1.267 3.377 1.51 4.899.458 2.857-.044 5.11-1.452 6.518-.696.697-1.603 1.175-2.693 1.42-.882.199-1.882.246-2.972.142a14 14 0 0 1-.825-.106l-.2 1.262q.457.073.903.115.623.06 1.214.06a10 10 0 0 0 2.16-.227c1.33-.3 2.447-.893 3.317-1.763 1.709-1.709 2.335-4.344 1.81-7.623M34 19.266l-1.11.633q.454.796.863 1.616l1.144-.568a33 33 0 0 0-.897-1.68m-2.965-4.44-1.015.776a44 44 0 0 1 1.382 1.913l1.056-.72a45 45 0 0 0-1.423-1.97m-3.158-3.693-.924.882q.814.855 1.582 1.752l.971-.83a45 45 0 0 0-1.63-1.804M12.046 4.495l1.249-.267-.413-1.93q1.761.625 3.413 1.498a37.4 37.4 0 0 1 5.487 3.543 45 45 0 0 1 4.336 3.82l.903-.903a48 48 0 0 0-1.958-1.85 46 46 0 0 0-2.498-2.077 39 39 0 0 0-2.516-1.796q.723-.408 1.464-.778l-.568-1.144c-.573.284-1.158.598-1.74.93l.407.709a39 39 0 0 0-2.72-1.583 27 27 0 0 0-2.539-1.177l1.126-.24L15.212 0 11.89.71a.64.64 0 0 0-.491.758zM.199 27.536a13.2 13.2 0 0 0-.19 2.793c.096 2.075.761 3.743 1.979 4.96.878.879 2.007 1.475 3.354 1.772l.008.002a10.5 10.5 0 0 0 3.07.18l-.112-1.274a9.3 9.3 0 0 1-2.695-.156c-1.104-.244-2.02-.724-2.722-1.427-.985-.985-1.525-2.37-1.605-4.11a12 12 0 0 1 .172-2.519zm14.885 7.845c.72-.325 1.456-.693 2.186-1.093l-.614-1.12c-.702.384-1.407.737-2.098 1.048zm-4.308 1.49q1.028-.24 2.026-.584l-.413-1.209a20 20 0 0 1-1.9.548zm12.726-8.527.837.965.196-.17a50 50 0 0 0 1.596-1.469l-.886-.92a46.513 46.513 0 0 1-1.744 1.594"/><path d="m19.776 31.238.725 1.052a42 42 0 0 0 1.961-1.438l-.784-1.009q-.93.724-1.902 1.395m7.86-29.566c2.856-.457 5.11.045 6.517 1.453.697.696 1.175 1.602 1.42 2.693.199.882.247 1.882.142 2.973q-.039.404-.106.824l1.262.2q.073-.459.115-.903c.118-1.225.062-2.36-.166-3.375-.3-1.33-.893-2.446-1.763-3.316C33.347.512 30.71-.114 27.434.41c-1.63.26-3.383.8-5.21 1.601l.513 1.17c1.728-.758 3.376-1.266 4.898-1.51m-13.871 7.3-.831-.97a46 46 0 0 0-1.803 1.629l.882.924q.855-.814 1.752-1.582m3.749-2.866-.72-1.056q-1.005.685-1.97 1.423l.776 1.015a43 43 0 0 1 1.913-1.382m19.049 4.819a.64.64 0 0 0-.79-.439l-2.976.852.351 1.228 1.89-.541a26 26 0 0 1-1.86 4.412 37.7 37.7 0 0 1-3.63 5.553 45 45 0 0 1-3.238 3.702l.915.892a47 47 0 0 0 3.328-3.804 39 39 0 0 0 3.753-5.744 28.5 28.5 0 0 0 1.629-3.66l.334 1.167 1.228-.352zM1.331 26.124q.068 0 .134-.015l3.026-.646-.267-1.25-1.93.413a25.6 25.6 0 0 1 1.499-3.413 37.3 37.3 0 0 1 3.542-5.487 45 45 0 0 1 3.82-4.336l-.902-.903a48 48 0 0 0-1.852 1.958 46 46 0 0 0-2.076 2.499 38.6 38.6 0 0 0-3.662 5.672 27 27 0 0 0-1.177 2.54l-.24-1.127-1.25.267.71 3.322a.64.64 0 0 0 .625.506m11.906-12.436v10.135c0 .54.303 1.302 1.841 1.858.996.36 2.298.559 3.68.559h.05q1.202 0 2.382-.218c1.991-.382 3.146-1.183 3.146-2.2V13.689c0-.54-.338-1.301-1.877-1.858-.996-.36-2.315-.56-3.7-.56s-2.681.2-3.677.56c-1.538.556-1.845 1.317-1.845 1.858m7.714 11.079c-.723.134-1.457.2-2.192.195-1.24 0-2.382-.171-3.242-.482-.842-.305-1.003-.61-1.003-.657v-1.784q.273.146.564.248c.996.36 2.298.56 3.683.56 1.386 0 2.708-.2 3.704-.56.218-.079.354-.162.593-.248v1.783c0 .12-.517.64-2.107.945m2.107-4.338c0 .048-.192.353-1.033.657-.86.312-2.025.483-3.266.483-1.24 0-2.382-.171-3.242-.483-.842-.304-1.003-.61-1.003-.657v-1.76q.273.145.564.248c.996.36 2.298.56 3.683.56 1.386 0 2.708-.2 3.704-.56.218-.079.354-.162.593-.248zm-1.033-2.713c-.86.311-2.025.482-3.266.482-1.24 0-2.382-.17-3.242-.482-.842-.305-1.003-.61-1.003-.657v-1.76q.273.144.564.248c.996.36 2.298.559 3.683.559s2.707-.199 3.704-.56c.218-.079.354-.162.593-.247v1.76c0 .047-.192.352-1.033.657m-6.532-4.685c.86-.312 2.018-.483 3.258-.483s2.398.171 3.258.483c.841.305 1.018.61 1.018.657s-.177.353-1.018.657c-.86.312-2.017.483-3.258.483-1.24 0-2.397-.172-3.258-.483-.841-.304-1.018-.61-1.018-.657s.177-.352 1.019-.657"/></g><defs><clipPath id="a"><path fill="#fff" d="M0 0h40v40H0z"/></clipPath></defs></svg>