<svg xmlns="http://www.w3.org/2000/svg" width="40" height="40" fill="none"><g clip-path="url(#a)"><path fill="#384BFF" d="M7.525 27.06a.547.547 0 0 1 .547-.546h13.222a.547.547 0 0 1 0 1.093H8.072a.547.547 0 0 1-.547-.546m.547-3.507h9.659a.547.547 0 0 0 0-1.094H8.072a.547.547 0 1 0 0 1.094m22.385 7.988v6.49c0 .698-.569 1.266-1.267 1.266h-8.716a1.27 1.27 0 0 1-1.267-1.267v-3.962c-1.451.337-2.97.508-4.524.508-.644 0-1.292-.03-1.928-.09L6 39.2a.547.547 0 0 1-.846-.572l1.356-5.842C2.865 30.997.703 28.124.703 25.033c0-2.12.988-4.123 2.856-5.793 1.787-1.599 4.22-2.752 7.033-3.336a.546.546 0 0 1 .223 1.071c-2.589.537-4.907 1.63-6.527 3.08-1.63 1.457-2.491 3.179-2.491 4.978 0 2.763 2.083 5.36 5.572 6.948a.55.55 0 0 1 .307.621l-1.134 4.885 5.752-4.014a.55.55 0 0 1 .37-.095q1.007.105 2.019.104c1.56 0 3.08-.182 4.524-.54v-1.401c0-.699.568-1.267 1.267-1.267h4.298c1.805-1.49 2.797-3.346 2.797-5.24 0-2.026-1.122-3.989-3.16-5.528a.545.545 0 0 1 .253-.982.55.55 0 0 1 .407.11c2.317 1.75 3.594 4.023 3.594 6.4 0 1.874-.802 3.695-2.284 5.24h2.81c.7 0 1.268.568 1.268 1.267m-1.094 0a.175.175 0 0 0-.173-.173h-8.716a.175.175 0 0 0-.174.173v6.49c0 .093.08.172.174.172h8.716c.094 0 .173-.08.173-.173zm-2.424 3.244a.55.55 0 0 1-.274.474l-3.12 1.802a.547.547 0 0 1-.82-.474v-3.603a.546.546 0 0 1 .82-.474l3.12 1.802a.55.55 0 0 1 .274.474m-1.64 0-1.48-.854v1.709zM35.727 6.42c.096 0 .19-.025.273-.073l2.112-1.22a.547.547 0 1 0-.547-.947L35.454 5.4a.547.547 0 0 0 .274 1.02m-3.52-2.467a.547.547 0 0 0 .746-.2l1.287-2.228a.547.547 0 1 0-.947-.547l-1.287 2.228a.547.547 0 0 0 .2.747M35.63 9.88a.547.547 0 0 0 .547.546h2.573a.547.547 0 0 0 0-1.093h-2.573a.547.547 0 0 0-.547.547m-23.169 6.001a4.17 4.17 0 0 1 1.951-2.549l2.86-1.651a.55.55 0 0 1 .57.014c2.94-2.2 5.258-4.747 6.586-7.24l-.05-.087a2.25 2.25 0 0 1 .822-3.07 2.25 2.25 0 0 1 3.07.822l2.232 3.865a2.52 2.52 0 0 1 3.334.978 2.52 2.52 0 0 1-.82 3.376l2.231 3.865c.3.519.379 1.124.223 1.706a2.23 2.23 0 0 1-1.045 1.365 2.23 2.23 0 0 1-1.706.222 2.23 2.23 0 0 1-1.365-1.045l-.05-.087c-2.798-.096-6.13.625-9.475 2.046l3.948 5.315a1.27 1.27 0 0 1-.16 1.703l-.87.789a1.28 1.28 0 0 1-1.473.169 1.3 1.3 0 0 1-.39-.343l-4.132-5.527-.144.083a4.16 4.16 0 0 1-3.183.415 4.17 4.17 0 0 1-2.549-1.95 4.17 4.17 0 0 1-.415-3.184M24.9 24.38l-3.852-5.186-1.341.774 4.053 5.424a.16.16 0 0 0 .116.064c.03.003.086 0 .138-.046l.868-.789a.18.18 0 0 0 .018-.241M31.05 6.936l1.417 2.454a1.424 1.424 0 0 0 .422-1.88 1.424 1.424 0 0 0-1.839-.574m-5.726-3.114 6.977 12.084c.154.266.402.456.701.536a1.146 1.146 0 0 0 1.411-.815c.08-.299.04-.61-.113-.875L27.323 2.668a1.154 1.154 0 0 0-1.576-.422 1.15 1.15 0 0 0-.536.7c-.08.3-.04.61.113.876m-6.882 8.791 2.804 4.858c3.28-1.413 6.571-2.181 9.422-2.206l-5.605-9.708c-1.447 2.457-3.757 4.922-6.621 7.056m-4.619 5.905a3.08 3.08 0 0 0 1.885 1.441 3.08 3.08 0 0 0 2.353-.305l2.387-1.378-3.102-5.374-2.387 1.379a3.08 3.08 0 0 0-1.441 1.884 3.08 3.08 0 0 0 .305 2.353M3.703 7.025a3.325 3.325 0 0 1 3.322-3.322 3.325 3.325 0 0 1 3.322 3.322 3.325 3.325 0 0 1-3.322 3.322 3.325 3.325 0 0 1-3.322-3.322m1.094 0c0 1.229 1 2.228 2.228 2.228s2.228-1 2.228-2.228-1-2.228-2.228-2.228a2.23 2.23 0 0 0-2.228 2.228m-4.094.578V6.448c0-.511.416-.927.926-.927.453 0 .631-.345.675-.451a.72.72 0 0 0-.158-.797.92.92 0 0 1-.271-.655.92.92 0 0 1 .271-.655l.817-.817a.927.927 0 0 1 1.31 0c.32.32.69.202.796.158a.72.72 0 0 0 .452-.675c0-.51.416-.926.926-.926h1.155c.511 0 .927.416.927.926 0 .453.345.631.451.675a.72.72 0 0 0 .797-.158.927.927 0 0 1 1.31 0l.817.817a.92.92 0 0 1 .27.655.92.92 0 0 1-.27.655.72.72 0 0 0-.158.797.72.72 0 0 0 .675.451c.51 0 .926.416.926.927v1.155c0 .51-.416.926-.926.926a.72.72 0 0 0-.675.452.72.72 0 0 0 .158.796.927.927 0 0 1 0 1.31l-.817.817a.92.92 0 0 1-.655.271.92.92 0 0 1-.655-.271.72.72 0 0 0-.797-.158.72.72 0 0 0-.451.675c0 .51-.416.926-.927.926H6.448a.927.927 0 0 1-.927-.926.72.72 0 0 0-.451-.675.72.72 0 0 0-.797.158.92.92 0 0 1-.655.271.92.92 0 0 1-.655-.271l-.817-.817a.92.92 0 0 1-.27-.655.92.92 0 0 1 .27-.655c.32-.32.202-.69.158-.796a.72.72 0 0 0-.675-.452.927.927 0 0 1-.926-.926m1.094-.16c.679.059 1.251.476 1.517 1.12a1.79 1.79 0 0 1-.281 1.864l.59.59a1.79 1.79 0 0 1 1.865-.282c.643.266 1.06.839 1.12 1.519h.834a1.79 1.79 0 0 1 1.12-1.518 1.79 1.79 0 0 1 1.865.281l.59-.59a1.79 1.79 0 0 1-.281-1.865 1.79 1.79 0 0 1 1.517-1.12v-.834a1.79 1.79 0 0 1-1.517-1.12 1.79 1.79 0 0 1 .281-1.865l-.59-.59a1.79 1.79 0 0 1-1.865.281 1.79 1.79 0 0 1-1.12-1.517h-.834a1.79 1.79 0 0 1-1.12 1.517 1.79 1.79 0 0 1-1.865-.28l-.59.59c.438.521.548 1.221.281 1.864a1.79 1.79 0 0 1-1.517 1.12zm37.457 14.54c-.193 1.619-.972 3.16-1.419 3.933-.447.774-1.392 2.219-2.697 3.196-.847.633-1.7.952-2.526.952a3.3 3.3 0 0 1-1.68-.467l-.197-.114a1.4 1.4 0 0 1-.652-.85 1.4 1.4 0 0 1 .139-1.063l.785-1.36a1.403 1.403 0 0 1 1.914-.513l.46.265a.3.3 0 0 0 .385-.063c.43-.49.825-1.046 1.176-1.653.35-.608.634-1.229.844-1.845a.3.3 0 0 0-.138-.365l-.46-.266a1.4 1.4 0 0 1-.652-.85 1.4 1.4 0 0 1 .139-1.064l.785-1.36a1.403 1.403 0 0 1 1.914-.512l.196.113c1.314.759 1.897 2.102 1.684 3.885m-2.23-2.939-.197-.113a.31.31 0 0 0-.42.112l-.785 1.36a.305.305 0 0 0 .023.34.3.3 0 0 0 .09.08l.46.266c.587.338.844 1.022.627 1.663-.233.685-.547 1.371-.933 2.04-.386.67-.824 1.285-1.3 1.828a1.39 1.39 0 0 1-1.754.29l-.461-.266a.31.31 0 0 0-.42.112l-.785 1.36a.305.305 0 0 0 .023.34.3.3 0 0 0 .09.08l.196.113c.931.538 1.914.403 3.004-.413 1.193-.892 2.08-2.302 2.406-2.867.326-.564 1.104-2.038 1.28-3.516.161-1.353-.213-2.271-1.145-2.809"/></g><defs><clipPath id="a"><path fill="#fff" d="M0 0h40v40H0z"/></clipPath></defs></svg>