<svg xmlns="http://www.w3.org/2000/svg" width="40" height="40" fill="none"><path fill="#384BFF" d="M35.2 6.09a1.436 1.436 0 1 0 0-2.872 1.435 1.435 0 1 0 0 2.873m0-1.848a.419.419 0 1 1-.002.838.419.419 0 0 1 .002-.838"/><path fill="#384BFF" d="M36.794.897H7.267A2.04 2.04 0 0 0 5.23 2.933v3.11H3.206A2.04 2.04 0 0 0 1.17 8.078v25.533a2.04 2.04 0 0 0 2.036 2.036H16.74v2.946c0 .279.23.509.509.509h9.563c.28 0 .51-.23.51-.51v-2.945h5.412a2.04 2.04 0 0 0 2.036-2.036v-3.109h2.024a2.04 2.04 0 0 0 2.037-2.036V2.933A2.04 2.04 0 0 0 36.794.897M6.25 2.933c0-.563.46-1.018 1.018-1.018h29.527c.564 0 1.018.46 1.018 1.018V7.4h-19.32l-2.274-2.358a.93.93 0 0 0-.666-.284h-5.006a.93.93 0 0 0-.928.927V7.4h-3.37zM3.206 34.636a1.02 1.02 0 0 1-1.018-1.018V8.078c0-.563.46-1.017 1.018-1.017h2.025v21.412a2.04 2.04 0 0 0 2.036 2.036H18.32c.2.388.291.824.255 1.273h-.788c-.582 0-1.048.473-1.048 1.048v1.806zm18.322-10.66a.58.58 0 0 1 .503-.297c.315 0 .57.254.57.57 0 .206-.11.393-.286.497-.194.115-.424.103-.66-.03a.17.17 0 0 1-.073-.074c-.194-.309-.115-.551-.055-.666m-.007-1.218a1.58 1.58 0 0 0-.878.727c-.291.521-.255 1.157.084 1.703q.166.256.43.412c.28.158.583.242.88.242.278 0 .551-.072.794-.212a1.585 1.585 0 0 0-.29-2.873V20.14l4.502 8.128c-.006.006-.012.018-.03.024a3.426 3.426 0 0 0-2.552 3.49h-4.855c.091-1.593-.957-3.084-2.582-3.539l4.497-8.103zm4.782 15.327h-8.545l.03-5.291h8.485q.029.001.03.03zm7.449-4.473a1.02 1.02 0 0 1-1.018 1.018H27.32v-1.806c0-.582-.472-1.048-1.048-1.048h-.788c-.036-.449.06-.885.255-1.273h8.012zm3.042-4.121H26.728c.163-.091.339-.17.533-.218a1.08 1.08 0 0 0 .715-.612c.127-.297.11-.63-.049-.916l-5.212-9.387a.77.77 0 0 0-.678-.407.8.8 0 0 0-.691.4l-5.218 9.395c-.158.284-.17.624-.043.92.127.304.388.522.71.607.193.048.363.127.532.218H7.268a1.02 1.02 0 0 1-1.018-1.018V8.418h3.454a.93.93 0 0 0 .928-.927V5.776h4.878l2.273 2.357a.93.93 0 0 0 .667.285h19.363v20.049c0 .563-.454 1.024-1.018 1.024"/><path fill="#384BFF" d="M31.733 6.09a1.436 1.436 0 1 0 0-2.872 1.435 1.435 0 1 0 0 2.873m0-1.848a.419.419 0 1 1-.001.838.419.419 0 0 1 .001-.838m-3.472 1.849a1.436 1.436 0 1 0 0-2.873 1.436 1.436 0 1 0 0 2.873m0-1.849a.419.419 0 1 1-.002.838.419.419 0 0 1 .002-.838m3.581 8.613a2.02 2.02 0 0 0-.557 1.072h-7.121v-.8a.99.99 0 0 0-.988-.988h-2.297a.99.99 0 0 0-.988.988v.8h-7.115a2 2 0 0 0-.558-1.078c-.77-.758-2.085-.746-2.836.005a2 2 0 0 0-.588 1.419c0 .54.212 1.048.588 1.418.382.394.89.594 1.418.594.333 0 .673-.079.994-.243.35-.179.631-.469.8-.824q.064-.136.109-.273h4.94a10.12 10.12 0 0 0-5.413 6.74h-.788a.99.99 0 0 0-.987.988v2.297c0 .545.442.988.987.988h2.297a.99.99 0 0 0 .988-.988v-2.297a.99.99 0 0 0-.988-.988h-.46a9.09 9.09 0 0 1 6.63-6.485v.218c0 .546.443.988.988.988h2.297a.99.99 0 0 0 .988-.988V15.2a9.11 9.11 0 0 1 6.63 6.485h-.418a.99.99 0 0 0-.988.988v2.297c0 .545.443.988.988.988h2.297a.99.99 0 0 0 .988-.988v-2.297a.99.99 0 0 0-.988-.988h-.83a10.14 10.14 0 0 0-5.413-6.74H31.4c.097.28.255.534.467.746.381.394.89.594 1.418.594.333 0 .673-.079.994-.243.35-.179.631-.469.8-.824.394-.83.254-1.733-.37-2.37-.794-.751-2.109-.745-2.867.006m-20.175 1.933a.78.78 0 0 1-.34.345c-.527.267-.982.097-1.23-.163a.96.96 0 0 1-.29-.697c0-.26.102-.51.29-.703a.991.991 0 0 1 1.4-.006c.315.327.376.781.17 1.224m2.06 10.151-2.266.03-.03-2.266h2.266zm18.946 0-2.267.03-.03-2.266h2.266zm-11.758-9.515-.012-.763a.5.5 0 0 0 .006-.17v-.006c0-.018.012-.03.012-.049 0-.03-.012-.054-.018-.078l-.018-1.194h2.266l.019 1.194c-.006.03-.019.054-.019.084 0 .019.007.03.013.049v.006a.5.5 0 0 0 .012.218l.012.685zm13.218-.636a.78.78 0 0 1-.34.345c-.526.267-.98.097-1.23-.163a.96.96 0 0 1-.29-.697c0-.26.103-.51.29-.703a.99.99 0 0 1 1.4-.006c.316.327.376.781.17 1.224"/></svg>