<svg xmlns="http://www.w3.org/2000/svg" width="40" height="40" fill="none"><g fill="#384BFF" clip-path="url(#a)"><path d="M16.667 26.667h6.666a2 2 0 0 0 2-2v-6a2 2 0 0 0-2-2v-1.334a3.333 3.333 0 0 0-6.666 0v1.334a2 2 0 0 0-2 2v6a2 2 0 0 0 2 2M18 15.333a2 2 0 0 1 4 0v1.334h-4zm-2 3.334a.667.667 0 0 1 .667-.667h6.666a.666.666 0 0 1 .667.667v6a.667.667 0 0 1-.667.666h-6.666a.667.667 0 0 1-.667-.666z"/><path d="M19.333 23.21v.123a.667.667 0 0 0 1.334 0v-.122a2 2 0 1 0-1.334 0M20 20.668a.666.666 0 1 1 0 1.332.666.666 0 0 1 0-1.332"/><path d="M8.667 20c0 6.26 5.074 11.333 11.333 11.333S31.333 26.26 31.333 20 26.26 8.667 20 8.667C13.743 8.673 8.673 13.743 8.667 20M20 10c5.523 0 10 4.477 10 10s-4.477 10-10 10-10-4.477-10-10c.007-5.52 4.48-9.993 10-10m13.333 24.667a2.67 2.67 0 0 0-2.572 2H26v-4.03a13.9 13.9 0 0 0 4-2.837.668.668 0 1 0-.952-.933 12.6 12.6 0 0 1-3.958 2.736.66.66 0 0 0-.236.161q-.009.013-.019.028a.7.7 0 0 0-.116.183.7.7 0 0 0-.026.129.6.6 0 0 0-.026.116v4.447A1.333 1.333 0 0 0 26 38h4.761a2.662 2.662 0 1 0 2.572-3.333m0 4a1.334 1.334 0 1 1 0-2.668 1.334 1.334 0 0 1 0 2.668M5.24 27.333H8.46q.007-.001.016-.003a.6.6 0 0 0 .194-.04 1 1 0 0 0 .09-.037q.013-.004.024-.01c.007-.004.019-.018.03-.026a.63.63 0 0 0 .276-.372q.002-.015.006-.03a.6.6 0 0 0 .03-.148 1 1 0 0 0-.015-.075q.001-.013-.004-.026a.7.7 0 0 0-.076-.223l-.003-.01a12.6 12.6 0 0 1-1.441-3.8.667.667 0 0 0-1.307.266A14 14 0 0 0 7.347 26H5.239a2.666 2.666 0 1 0 0 1.334M2.667 28a1.334 1.334 0 1 1 0-2.667 1.334 1.334 0 0 1 0 2.667"/><path d="M0 13.333A2.661 2.661 0 0 0 5.239 14h3.239a.7.7 0 0 0 .378-.14.6.6 0 0 0 .144-.153c.009-.013.02-.022.028-.036A12.6 12.6 0 0 1 12.4 9.867a.67.67 0 0 0-.06-1.107.67.67 0 0 0-.74.04 14 14 0 0 0-3.511 3.867h-2.85A2.661 2.661 0 0 0 0 13.333m4 0a1.333 1.333 0 1 1-2.666 0 1.333 1.333 0 0 1 2.666 0M37.333 24a2.67 2.67 0 0 0-2.572 2h-2.108c.484-1.02.843-2.094 1.066-3.2a.667.667 0 1 0-1.307-.267 12.6 12.6 0 0 1-1.44 3.8v.009a.7.7 0 0 0-.077.228q.001.01-.005.021a1 1 0 0 0-.017.076.7.7 0 0 0 .031.154q.03.123.103.226.01.015.02.029.068.084.16.141.013.014.028.026l.024.01q.044.023.092.038a.7.7 0 0 0 .192.038c.006 0 .011.004.017.004h3.221A2.662 2.662 0 1 0 37.333 24m0 4a1.334 1.334 0 1 1 0-2.667 1.334 1.334 0 0 1 0 2.667m-22 4.231v-.011a1 1 0 0 0-.022-.11.7.7 0 0 0-.027-.134.7.7 0 0 0-.115-.18c-.008-.01-.012-.023-.021-.032a.7.7 0 0 0-.237-.16 12.8 12.8 0 0 1-4.537-3.37.666.666 0 1 0-1.013.867A14.1 14.1 0 0 0 14 32.646v4.02H9.239a2.667 2.667 0 1 0 0 1.334H14a1.333 1.333 0 0 0 1.333-1.333zm-8.666 6.436a1.334 1.334 0 1 1 0-2.667 1.334 1.334 0 0 1 0 2.667m15.866-6.254a12.9 12.9 0 0 1-5.066 0 .67.67 0 0 0-.803.78.67.67 0 0 0 .536.526q1.058.206 2.133.248v5.366a.667.667 0 0 0 1.334 0v-5.366c.716-.028 1.43-.11 2.133-.248a.667.667 0 0 0-.267-1.306M14 2H9.239a2.667 2.667 0 1 0 0 1.333H14v4.448c0 .027.013.053.016.08q.01.104.053.2.063.136.182.228.09.075.2.115a.7.7 0 0 0 .147.03q.033.008.067.013a.7.7 0 0 0 .275-.066 12.7 12.7 0 0 1 2.527-.794.667.667 0 0 0-.267-1.307 14 14 0 0 0-1.867.52V3.333A1.333 1.333 0 0 0 14 2M6.667 4a1.333 1.333 0 1 1 0-2.667 1.333 1.333 0 0 1 0 2.667m24.094-.667a2.667 2.667 0 1 0 0-1.333H26a1.333 1.333 0 0 0-1.333 1.333V7.78q.005.06.023.116a.7.7 0 0 0 .026.129.7.7 0 0 0 .117.183q.009.015.018.028.1.107.236.161a12.6 12.6 0 0 1 3.958 2.733A.666.666 0 1 0 30 10.2a13.9 13.9 0 0 0-4-2.837v-4.03zm2.572-2a1.333 1.333 0 1 1 0 2.667 1.333 1.333 0 0 1 0-2.667M20 0a.667.667 0 0 0-.667.667v6a.667.667 0 0 0 .667.666c.85 0 1.7.085 2.533.254A.667.667 0 0 0 22.8 6.28a14 14 0 0 0-2.133-.248V.667A.667.667 0 0 0 20 0m14.761 14a2.667 2.667 0 1 0 0-1.333H31.54c-.013 0-.023.006-.035.006a.6.6 0 0 0-.114.024.6.6 0 0 0-.158.053q-.008-.002-.018.007a.2.2 0 0 1-.028.025.7.7 0 0 0-.16.141q-.01.015-.02.03a.6.6 0 0 0-.098.2q.001.012-.005.026a.7.7 0 0 0-.03.154q.005.039.014.076.001.011.005.022.017.12.077.228v.008A12.66 12.66 0 0 1 32.667 20a.667.667 0 0 0 .666.667h6a.667.667 0 0 0 0-1.334h-5.355A14 14 0 0 0 32.645 14zm2.572-2a1.333 1.333 0 1 1 0 2.667 1.333 1.333 0 0 1 0-2.667M.667 20.667h6A.667.667 0 0 0 7.333 20a12.7 12.7 0 0 1 .633-3.965.667.667 0 0 0-1.267-.417 14 14 0 0 0-.673 3.715H.666a.667.667 0 0 0 0 1.334"/></g><defs><clipPath id="a"><path fill="#fff" d="M0 0h40v40H0z"/></clipPath></defs></svg>