<svg xmlns="http://www.w3.org/2000/svg" width="40" height="40" fill="none"><g clip-path="url(#a)"><path fill="#384BFF" d="M32.79 7.692a.547.547 0 0 1-.758.788 15.92 15.92 0 0 0-11.095-4.475 15.88 15.88 0 0 0-9.353 3.02.547.547 0 1 1-.64-.887 16.97 16.97 0 0 1 9.993-3.226c4.444 0 8.653 1.697 11.854 4.78M31.77 31.768a15.95 15.95 0 0 1-10.832 4.227c-3.543 0-6.9-1.136-9.708-3.283a.547.547 0 1 0-.664.868c3 2.295 6.587 3.509 10.372 3.509 4.3 0 8.41-1.604 11.573-4.517a.547.547 0 0 0-.741-.804M15.874 20a5.07 5.07 0 0 1 5.063-5.063A5.07 5.07 0 0 1 26 20a5.07 5.07 0 0 1-5.063 5.063A5.07 5.07 0 0 1 15.874 20m1.094 0c0 2.189 1.78 3.97 3.97 3.97 2.188 0 3.969-1.781 3.969-3.97s-1.78-3.97-3.97-3.97a3.974 3.974 0 0 0-3.97 3.97m-3.398-3.052a1.51 1.51 0 0 0-.331-1.67 1.16 1.16 0 0 1-.341-.824c0-.31.121-.603.341-.823l1.33-1.33a1.166 1.166 0 0 1 1.646 0c.533.534 1.213.521 1.67.332.458-.19.948-.661.948-1.415 0-.643.522-1.165 1.164-1.165h1.88c.642 0 1.164.523 1.164 1.164 0 .755.49 1.226.948 1.416s1.137.202 1.67-.331a1.165 1.165 0 0 1 1.647 0l1.33 1.33a1.166 1.166 0 0 1 0 1.646 1.51 1.51 0 0 0-.331 1.67c.19.459.66.948 1.415.948.642 0 1.164.522 1.164 1.164v1.88c0 .642-.522 1.164-1.164 1.164-.755 0-1.226.49-1.415.948a1.51 1.51 0 0 0 .33 1.67 1.166 1.166 0 0 1 0 1.647l-1.33 1.33c-.219.22-.511.34-.822.34s-.604-.12-.824-.34a1.51 1.51 0 0 0-1.67-.332c-.458.19-.948.662-.948 1.415 0 .642-.522 1.165-1.164 1.165h-1.88a1.166 1.166 0 0 1-1.164-1.165c0-.755-.49-1.227-.947-1.416a1.51 1.51 0 0 0-1.671.332c-.22.22-.512.341-.823.341s-.604-.12-.824-.34l-1.33-1.33a1.16 1.16 0 0 1-.34-.823c0-.311.12-.604.34-.824.534-.533.521-1.213.332-1.67a1.51 1.51 0 0 0-1.415-.948 1.166 1.166 0 0 1-1.165-1.164v-1.88c0-.642.522-1.164 1.165-1.164.754 0 1.225-.49 1.415-.948m1.01.419a2.59 2.59 0 0 1-2.425 1.622.07.07 0 0 0-.07.071v1.88c0 .039.03.07.07.07 1.081 0 2.01.622 2.425 1.623s.197 2.098-.568 2.863a.07.07 0 0 0-.02.05q0 .029.02.05l1.33 1.329a.071.071 0 0 0 .077.015.1.1 0 0 0 .022-.015 2.59 2.59 0 0 1 2.864-.57 2.59 2.59 0 0 1 1.622 2.428c0 .038.031.07.07.07h1.88a.07.07 0 0 0 .07-.07c0-1.082.622-2.012 1.623-2.426s2.098-.197 2.863.568a.07.07 0 0 0 .05.02.07.07 0 0 0 .05-.02l1.329-1.33a.07.07 0 0 0 .02-.05.07.07 0 0 0-.02-.05 2.59 2.59 0 0 1-.568-2.862 2.59 2.59 0 0 1 2.425-1.622.07.07 0 0 0 .071-.071v-1.88a.07.07 0 0 0-.07-.07 2.59 2.59 0 0 1-2.426-1.623c-.415-1-.197-2.098.568-2.863a.07.07 0 0 0 0-.1l-1.33-1.329a.07.07 0 0 0-.1 0 2.59 2.59 0 0 1-2.862.568 2.59 2.59 0 0 1-1.622-2.426.07.07 0 0 0-.071-.07h-1.88a.07.07 0 0 0-.07.07 2.59 2.59 0 0 1-1.623 2.426c-1.001.415-2.098.197-2.863-.568a.07.07 0 0 0-.1 0l-1.329 1.33a.07.07 0 0 0-.02.05q0 .03.02.05c.765.764.983 1.861.568 2.862m24.717 2.342v11.695a2.716 2.716 0 0 1-2.713 2.713 2.716 2.716 0 0 1-2.713-2.713V19.71a.547.547 0 0 1 .547-.546h.816V10.06l-.95-1.166a.55.55 0 0 1-.112-.448l.716-3.727a.55.55 0 0 1 .537-.444h2.318a.55.55 0 0 1 .537.444l.716 3.727a.55.55 0 0 1-.113.448l-.95 1.166v9.102h.817a.547.547 0 0 1 .547.546m-2.97-9.842v9.296h.513V9.867c0-.126.044-.248.123-.345l.91-1.12-.582-3.032h-1.414l-.583 3.033.91 1.119c.08.097.123.22.123.345m1.876 10.39h-3.238v11.147c0 .893.726 1.62 1.619 1.62a1.62 1.62 0 0 0 1.62-1.62zm-28.176 9.606a4.49 4.49 0 0 1-4.483 4.483 4.49 4.49 0 0 1-4.484-4.483 4.51 4.51 0 0 1 2.537-4.04v-11.44a4.844 4.844 0 0 1-.416-8.659.547.547 0 0 1 .814.477v3.045l1.549 1.321 1.548-1.321V6.2a.547.547 0 0 1 .814-.477 4.85 4.85 0 0 1 2.478 4.225 4.82 4.82 0 0 1-2.662 4.324v11.67a4.5 4.5 0 0 1 2.305 3.92m-1.094 0a3.4 3.4 0 0 0-1.987-3.087.55.55 0 0 1-.319-.53l.002-.054v-12.27a.55.55 0 0 1 .339-.506A3.74 3.74 0 0 0 9.29 9.949a3.75 3.75 0 0 0-1.104-2.656v2.205a.55.55 0 0 1-.192.416l-2.095 1.788a.55.55 0 0 1-.71 0L3.093 9.914a.55.55 0 0 1-.191-.416V7.293a3.748 3.748 0 0 0 1.42 6.199.55.55 0 0 1 .369.517v12.174a.55.55 0 0 1-.353.51 3.41 3.41 0 0 0-2.184 3.17c0 1.869 1.52 3.389 3.39 3.389 1.869 0 3.389-1.52 3.389-3.39m-1.207 0c0 1.203-.979 2.182-2.182 2.182a2.185 2.185 0 0 1-2.183-2.183c0-1.203.979-2.182 2.183-2.182s2.182.979 2.182 2.183m-1.093 0a1.09 1.09 0 0 0-2.178 0 1.09 1.09 0 0 0 2.178 0"/></g><defs><clipPath id="a"><path fill="#fff" d="M0 0h40v40H0z"/></clipPath></defs></svg>