<svg xmlns="http://www.w3.org/2000/svg" width="40" height="40" fill="none"><path fill="#384BFF" d="M22.55 31.962a.644.644 0 0 0-.644.644v2.837a.215.215 0 0 1-.215.213h-3.437a.215.215 0 0 1-.215-.215V32.61a.645.645 0 0 0-.516-.632 12.1 12.1 0 0 1-4.297-1.786.65.65 0 0 0-.812.082l-2.012 2.007a.216.216 0 0 1-.304 0l-2.43-2.43a.216.216 0 0 1 0-.306l2.01-2.009a.645.645 0 0 0 .077-.812 12.1 12.1 0 0 1-1.786-4.296.644.644 0 0 0-.628-.52H4.504a.215.215 0 0 1-.215-.216v-3.437a.216.216 0 0 1 .215-.213h2.845a.644.644 0 0 0 .631-.516c.31-1.533.915-2.992 1.779-4.297a.644.644 0 0 0-.079-.812l-2.013-2.012a.216.216 0 0 1 0-.305l2.43-2.43a.216.216 0 0 1 .305 0l2.01 2.01a.646.646 0 0 0 .811.082 12.1 12.1 0 0 1 4.297-1.787.644.644 0 0 0 .517-.632V4.505a.215.215 0 0 1 .217-.214h3.437a.216.216 0 0 1 .215.214v2.837a.645.645 0 0 0 1.29 0V4.505A1.506 1.506 0 0 0 21.69 3h-3.437a1.506 1.506 0 0 0-1.504 1.504v2.324a13.4 13.4 0 0 0-3.791 1.576l-1.646-1.646a1.54 1.54 0 0 0-2.126 0l-2.43 2.43a1.505 1.505 0 0 0 0 2.127l1.64 1.645a13.4 13.4 0 0 0-1.564 3.79h-2.33A1.506 1.506 0 0 0 3 18.254v3.437a1.507 1.507 0 0 0 1.504 1.506h2.321a13.4 13.4 0 0 0 1.576 3.791l-1.64 1.646a1.505 1.505 0 0 0 0 2.126l2.43 2.43a1.54 1.54 0 0 0 2.126 0l1.646-1.64a13.4 13.4 0 0 0 3.79 1.575v2.321a1.506 1.506 0 0 0 1.5 1.5h3.438a1.506 1.506 0 0 0 1.504-1.503v-2.834a.645.645 0 0 0-.644-.647"/><path fill="#384BFF" d="M25.773 14.818a3.226 3.226 0 0 0-3.223-3.224h-7.734a3.213 3.213 0 0 0-1.914 5.8 3.194 3.194 0 0 0 0 5.157 3.213 3.213 0 0 0 1.914 5.802h7.734a3.213 3.213 0 0 0 1.915-5.8 3.195 3.195 0 0 0 0-5.157 3.21 3.21 0 0 0 1.308-2.578m-1.289 10.313a1.935 1.935 0 0 1-1.934 1.931h-7.734a1.934 1.934 0 1 1 0-3.867h7.734a1.935 1.935 0 0 1 1.934 1.936m0-5.157a1.935 1.935 0 0 1-1.934 1.932h-7.734a1.934 1.934 0 0 1 0-3.867h7.734a1.935 1.935 0 0 1 1.934 1.935M22.55 16.75h-7.734a1.934 1.934 0 1 1 0-3.867h7.734a1.934 1.934 0 0 1 0 3.867"/><path fill="#384BFF" d="M21.691 14.172h-3.437a.644.644 0 1 0 0 1.289h3.437a.645.645 0 0 0 0-1.29M15.676 15.677a.86.86 0 1 0 0-1.718.86.86 0 0 0 0 1.718M18.254 20.619h3.437a.645.645 0 0 0 0-1.29h-3.437a.644.644 0 1 0 0 1.29M15.676 20.834a.86.86 0 1 0 0-1.72.86.86 0 0 0 0 1.72M18.254 25.775h3.437a.645.645 0 0 0 0-1.289h-3.437a.645.645 0 1 0 0 1.289M15.676 25.99a.86.86 0 1 0 0-1.719.86.86 0 0 0 0 1.719M25.129 10.306a.64.64 0 0 0 .516-.257l2.385-3.18h4.286a2.363 2.363 0 1 0 0-1.29h-4.609a.65.65 0 0 0-.516.257l-2.578 3.437a.644.644 0 0 0 .515 1.032zm9.453-5.156a1.074 1.074 0 1 1 0 2.148 1.074 1.074 0 0 1 0-2.148m0 17.616a2.36 2.36 0 0 0-2.266 1.718h-2.734l-1.583-.791a.643.643 0 1 0-.576 1.153l1.718.86c.09.044.189.067.289.067h2.89a2.358 2.358 0 1 0 2.262-3.007m0 3.437a1.075 1.075 0 1 1 0-2.15 1.075 1.075 0 0 1 0 2.15m0-13.75a2.36 2.36 0 0 0-2.266 1.719h-2.89a.64.64 0 0 0-.456.189l-.86.86a.644.644 0 0 0 .912.91l.671-.67h2.623a2.358 2.358 0 1 0 2.266-3.008m0 3.438a1.075 1.075 0 1 1 0-2.15 1.075 1.075 0 0 1 0 2.15m0 15.468a2.36 2.36 0 0 0-2.266 1.72H28.03l-2.384-3.18a.643.643 0 1 0-1.032.773l2.578 3.437a.65.65 0 0 0 .516.258h4.61a2.358 2.358 0 1 0 2.265-3.008m0 3.438a1.075 1.075 0 1 1 0-2.15 1.075 1.075 0 0 1 0 2.15"/></svg>