<svg xmlns="http://www.w3.org/2000/svg" width="40" height="40" fill="none"><g clip-path="url(#a)"><path fill="#384BFF" fill-rule="evenodd" d="M2.5 35h-.625A1.875 1.875 0 0 0 0 36.875 3.125 3.125 0 0 0 3.125 40h12.5a3.125 3.125 0 0 0 3.125-3.125A1.875 1.875 0 0 0 16.875 35h-.625v-5.625a3.125 3.125 0 0 0-3.125-3.125h-7.5A3.125 3.125 0 0 0 2.5 29.375zm21.25 0h-.625a1.874 1.874 0 0 0-1.875 1.875A3.125 3.125 0 0 0 24.375 40h12.5A3.125 3.125 0 0 0 40 36.875 1.875 1.875 0 0 0 38.125 35H37.5v-5.625a3.125 3.125 0 0 0-3.125-3.125h-7.5a3.125 3.125 0 0 0-3.125 3.125zm-8.127 1.25h1.252a.625.625 0 0 1 .625.625 1.875 1.875 0 0 1-1.875 1.875h-12.5a1.875 1.875 0 0 1-1.875-1.875.625.625 0 0 1 .625-.625h5.138q.144.317.428.575c.438.399 1.137.675 1.934.675s1.496-.276 1.934-.675c.189-.171.333-.366.429-.575zm21.25 0h1.252a.625.625 0 0 1 .625.625 1.875 1.875 0 0 1-1.875 1.875h-12.5a1.875 1.875 0 0 1-1.875-1.875.625.625 0 0 1 .625-.625h5.137q.145.317.43.575c.437.399 1.136.675 1.933.675s1.496-.276 1.934-.675c.189-.171.333-.366.428-.575zM36.25 35v-5.625a1.875 1.875 0 0 0-1.875-1.875h-7.5A1.875 1.875 0 0 0 25 29.375V35h3.75a.625.625 0 0 1 .625.625c0 .15.123.266.27.364.25.167.599.26.98.26s.73-.093.98-.26c.147-.098.27-.213.27-.364A.625.625 0 0 1 32.5 35zM15 35v-5.625a1.875 1.875 0 0 0-1.875-1.875h-7.5a1.875 1.875 0 0 0-1.875 1.875V35H7.5a.625.625 0 0 1 .625.625c0 .15.123.266.27.364.25.167.599.26.98.26s.73-.093.98-.26c.147-.098.27-.213.27-.364A.625.625 0 0 1 11.25 35zm-9.375-1.875h1.25a.625.625 0 0 0 0-1.25h-1.25a.625.625 0 1 0 0 1.25m23.125-1.25h-1.875a.625.625 0 1 0 0 1.25h1.875a.625.625 0 0 0 0-1.25m5.625 0H31.25a.625.625 0 1 0 0 1.25h3.125a.625.625 0 0 0 0-1.25m-25 1.25h3.75a.625.625 0 0 0 0-1.25h-3.75a.625.625 0 1 0 0 1.25m25-3.75h-1.25a.625.625 0 1 0 0 1.25h1.25a.625.625 0 0 0 0-1.25m-23.125 1.25h1.875a.625.625 0 0 0 0-1.25H11.25a.625.625 0 1 0 0 1.25m-5.625 0H8.75a.625.625 0 0 0 0-1.25H5.625a.625.625 0 1 0 0 1.25m25-1.25h-3.75a.625.625 0 1 0 0 1.25h3.75a.625.625 0 0 0 0-1.25M30 20.732a1.875 1.875 0 1 0 1.25 0v-3.857A1.874 1.874 0 0 0 29.375 15H25a.625.625 0 1 0 0 1.25h4.375a.625.625 0 0 1 .625.625zm-21.25 0a1.875 1.875 0 1 0 1.25 0v-3.857a.625.625 0 0 1 .625-.625H15A.625.625 0 0 0 15 15h-4.375a1.874 1.874 0 0 0-1.875 1.875zm21.875 1.143a.625.625 0 1 1 0 1.25.625.625 0 0 1 0-1.25m-21.25 0a.625.625 0 1 1 0 1.25.625.625 0 0 1 0-1.25m13.397-5.03q-.885.73-1.88 1.3l-.892.51-.892-.51a13.5 13.5 0 0 1-1.87-1.291.625.625 0 0 0-.794.965q.962.791 2.044 1.41l1.202.688a.63.63 0 0 0 .62 0l1.203-.688a15 15 0 0 0 2.054-1.42.626.626 0 0 0-.795-.964m-3.084.19a.62.62 0 0 0 .625 0c3.741-2.16 5.977-6.081 5.936-10.238a.63.63 0 0 0-.31-.533l-5.624-3.283a.62.62 0 0 0-.63 0l-5.624 3.283a.63.63 0 0 0-.31.533c-.041 4.157 2.195 8.077 5.937 10.238m.312-1.27c-3.052-1.9-4.91-5.139-4.997-8.604L20 4.244l4.997 2.917c-.086 3.465-1.945 6.704-4.997 8.605m-5.876-2.638a12.72 12.72 0 0 1-1.565-7.433L20 1.349l7.441 4.344c.25 2.6-.307 5.214-1.595 7.486a.624.624 0 0 0 1.089.614 13.97 13.97 0 0 0 1.714-8.556.63.63 0 0 0-.305-.465L20.316.085a.63.63 0 0 0-.631 0l-8.029 4.687a.62.62 0 0 0-.305.465 13.97 13.97 0 0 0 1.681 8.5.625.625 0 1 0 1.092-.61m5.251-2.609v1.33a.625.625 0 0 0 1.25 0v-1.33a1.875 1.875 0 1 0-1.25 0m.639-1.143A.626.626 0 0 0 20 8.125a.625.625 0 1 0-.014 1.25h.028" clip-rule="evenodd"/></g><defs><clipPath id="a"><path fill="#fff" d="M0 0h40v40H0z"/></clipPath></defs></svg>