<svg xmlns="http://www.w3.org/2000/svg" width="40" height="40" fill="none"><path fill="#384BFF" d="m13.881 19.941 2.135-9.312a.625.625 0 0 1 1.218.279L15.1 20.22a.625.625 0 0 1-1.218-.279M6.91 15.97l5.113 2.857q.146.08.304.08a.626.626 0 0 0 .305-1.17l-4.137-2.313 4.137-2.311a.625.625 0 0 0-.61-1.09L6.91 14.877a.624.624 0 0 0 0 1.09m11.336 2.616a.626.626 0 0 0 .85.24l5.114-2.856a.623.623 0 0 0 0-1.09l-5.114-2.858a.625.625 0 0 0-.61 1.09l4.138 2.312-4.137 2.312a.625.625 0 0 0-.24.85M40 23.465v2.19c0 .27-.174.51-.431.594l-1.363.443a8 8 0 0 1-.753 1.815l.652 1.278a.62.62 0 0 1-.116.726l-1.547 1.547a.625.625 0 0 1-.726.115l-1.277-.651a8 8 0 0 1-1.817.754l-.106.322-.335 1.038a.625.625 0 0 1-.595.432h-2.19a.62.62 0 0 1-.594-.432l-.442-1.36a8 8 0 0 1-1.817-.754l-1.277.651a.62.62 0 0 1-.726-.115l-1.547-1.547a.63.63 0 0 1-.152-.638h-3.867l1.055 2.946h2.067a.624.624 0 1 1 0 1.248H9.02a.624.624 0 1 1 0-1.248h2.068l1.054-2.946h-9.56A2.585 2.585 0 0 1 0 27.291V8.511a2.584 2.584 0 0 1 2.582-2.579h25.952a2.583 2.583 0 0 1 2.582 2.58v6.54h.47c.271 0 .51.174.595.432l.44 1.36a8 8 0 0 1 1.817.754l1.28-.65a.62.62 0 0 1 .723.114l1.548 1.546a.62.62 0 0 1 .116.726l-.652 1.277c.328.576.58 1.184.754 1.816l.322.106 1.038.336a.63.63 0 0 1 .433.596M1.25 8.512v15.156h19.734v-.204c0-.271.174-.51.432-.594l1.36-.442a8 8 0 0 1 .755-1.816l-.652-1.278a.62.62 0 0 1 .115-.726l1.548-1.546a.625.625 0 0 1 .724-.115l1.28.65a8 8 0 0 1 1.816-.753l.105-.323.336-1.038a.625.625 0 0 1 .595-.432h.471V8.51c0-.734-.598-1.331-1.332-1.331H2.583a1.336 1.336 0 0 0-1.334 1.332m1.333 20.113H23.47l.06-.118a8 8 0 0 1-.753-1.815l-1.362-.443a.625.625 0 0 1-.431-.594v-.737H1.249v2.374c0 .734.599 1.333 1.334 1.333m15.066 1.248h-4.18l-1.055 2.946h6.29zm21.102-5.954-1.26-.41a.63.63 0 0 1-.414-.456 6.7 6.7 0 0 0-.866-2.085.62.62 0 0 1-.027-.616l.601-1.18-.906-.906-1.181.601a.63.63 0 0 1-.616-.027 6.8 6.8 0 0 0-2.087-.866.63.63 0 0 1-.454-.414l-.41-1.26H29.85l-.41 1.26a.63.63 0 0 1-.454.414c-.74.17-1.445.462-2.087.866a.62.62 0 0 1-.615.027l-1.182-.6-.906.904.602 1.181a.63.63 0 0 1-.028.616 6.8 6.8 0 0 0-.865 2.087.63.63 0 0 1-.414.454l-1.26.41V25.2l1.258.41c.209.067.367.239.416.453.17.74.463 1.445.866 2.087.117.186.127.42.027.615l-.386.759-.015.029-.2.394.905.907 1.182-.602a.63.63 0 0 1 .616.028 6.7 6.7 0 0 0 2.084.865.63.63 0 0 1 .455.415l.41 1.26h1.282l.41-1.26a.63.63 0 0 1 .455-.415 6.6 6.6 0 0 0 2.084-.865.63.63 0 0 1 .616-.028l1.181.602.907-.907-.602-1.18a.63.63 0 0 1 .027-.617 6.8 6.8 0 0 0 .866-2.086.62.62 0 0 1 .416-.454l1.258-.409V23.92zm-4.399.642a3.865 3.865 0 0 1-3.86 3.86 3.866 3.866 0 0 1-3.862-3.86 3.867 3.867 0 0 1 3.862-3.863 3.865 3.865 0 0 1 3.86 3.863m-1.248 0a2.615 2.615 0 0 0-2.611-2.613 2.617 2.617 0 0 0-2.613 2.613 2.615 2.615 0 0 0 2.613 2.61 2.614 2.614 0 0 0 2.61-2.61"/></svg>